<?xml version="1.0" encoding="UTF-8" standalone="no"?>
<!-- Created with Inkscape (http://www.inkscape.org/) -->

<svg
   xmlns:dc="http://purl.org/dc/elements/1.1/"
   xmlns:cc="http://creativecommons.org/ns#"
   xmlns:rdf="http://www.w3.org/1999/02/22-rdf-syntax-ns#"
   xmlns:svg="http://www.w3.org/2000/svg"
   xmlns="http://www.w3.org/2000/svg"
   xmlns:sodipodi="http://sodipodi.sourceforge.net/DTD/sodipodi-0.dtd"
   xmlns:inkscape="http://www.inkscape.org/namespaces/inkscape"
   id="svg2"
   version="1.1"
   inkscape:version="0.91 r"
   width="320"
   height="320"
   viewBox="0 0 320 320"
   sodipodi:docname="skp.svg">
  <metadata
     id="metadata8">
    <rdf:RDF>
      <cc:Work
         rdf:about="">
        <dc:format>image/svg+xml</dc:format>
        <dc:type
           rdf:resource="http://purl.org/dc/dcmitype/StillImage" />
        <dc:title></dc:title>
      </cc:Work>
    </rdf:RDF>
  </metadata>
  <defs
     id="defs6" />
  <sodipodi:namedview
     pagecolor="#ffffff"
     bordercolor="#666666"
     borderopacity="1"
     objecttolerance="10"
     gridtolerance="10"
     guidetolerance="10"
     inkscape:pageopacity="0"
     inkscape:pageshadow="2"
     inkscape:window-width="1600"
     inkscape:window-height="851"
     id="namedview4"
     showgrid="false"
     inkscape:zoom="0.7375"
     inkscape:cx="162.71186"
     inkscape:cy="160"
     inkscape:window-x="0"
     inkscape:window-y="0"
     inkscape:window-maximized="1"
     inkscape:current-layer="svg2" />
  <path
     style="fill:#de1223;fill-opacity:1"
     d="M 79.9534,318.03811 C 79.606802,317.45542 70.620906,289.96364 59.984746,256.94524 L 40.646269,196.91178 26.117886,111.09926 C 18.127276,63.902374 11.990977,25.286737 12.481668,25.286737 c 0.490693,0 42.818898,-5.41478 94.062682,-12.032845 51.24378,-6.6180635 95.09154,-12.1599972 97.43947,-12.31540734 3.62327,-0.2398264 11.74686,5.56118394 53.70828,38.35275334 27.19163,21.249425 49.62098,38.785487 49.84301,38.969028 0.55933,0.462356 -20.95472,182.049954 -21.65135,182.746594 -0.59438,0.59437 -202.649039,58.0107 -204.324132,58.06122 -0.536828,0.0163 -1.259629,-0.4473 -1.606229,-1.02997 z m 34.76946,-86.56401 c 15.7039,-3.90939 29.35224,-7.38747 30.32966,-7.72909 2.76836,-0.96757 -12.28142,-30.36461 -15.54514,-30.36461 -2.35386,0 -40.497705,8.33728 -52.166265,11.40222 l -5.194563,1.36444 4.688733,13.74553 c 6.052407,17.7433 6.458522,18.68947 8.021975,18.68947 0.722178,0 14.161701,-3.19858 29.8656,-7.10796 z m 80.46382,-76.462 c 8.35171,-1.74041 15.18112,-3.51317 15.17646,-3.93944 -0.005,-0.4263 -9.25245,-12.21676 -20.55066,-26.20102 -12.62774,-15.6299 -21.46813,-25.385707 -22.94549,-25.321517 -5.0668,0.22014 -112.630576,19.358177 -113.523019,20.198317 -1.602188,1.5083 9.483589,29.09651 11.880351,29.5656 1.205615,0.23596 15.409007,-2.13216 31.563089,-5.2625 16.154089,-3.13036 29.502979,-5.54819 29.664239,-5.37298 0.16126,0.17524 3.86909,6.43952 8.23963,13.92067 l 7.94643,13.60206 18.68202,-4.01239 c 10.2751,-2.20683 25.51523,-5.43637 33.86695,-7.1768 z m 53.04353,-65.318752 c 18.87995,-3.391729 34.57943,-6.41902 34.88771,-6.727295 0.30828,-0.308276 -17.56786,-14.683531 -39.72475,-31.945012 -26.76404,-20.850705 -41.41487,-31.384512 -43.6508,-31.384512 -4.04909,0 -166.126975,20.904672 -166.726555,21.50425 -0.230608,0.230607 1.963812,6.1336 4.876487,13.117761 3.260092,7.817219 6.193164,12.871408 7.630318,13.148353 1.284001,0.247433 29.156756,-3.442065 61.93945,-8.198882 l 59.6049,-8.648762 21.76904,22.677542 c 11.97296,12.472652 22.51106,22.665344 23.41799,22.65045 0.90695,-0.01492 17.09623,-2.802153 35.97621,-6.193882 z"
     id="path4138"
     inkscape:connector-curvature="0" />
</svg>
