<?xml version="1.0" encoding="UTF-8" standalone="no"?>
<!-- Created with Inkscape (http://www.inkscape.org/) -->

<svg
   xmlns:dc="http://purl.org/dc/elements/1.1/"
   xmlns:cc="http://creativecommons.org/ns#"
   xmlns:rdf="http://www.w3.org/1999/02/22-rdf-syntax-ns#"
   xmlns:svg="http://www.w3.org/2000/svg"
   xmlns="http://www.w3.org/2000/svg"
   xmlns:sodipodi="http://sodipodi.sourceforge.net/DTD/sodipodi-0.dtd"
   xmlns:inkscape="http://www.inkscape.org/namespaces/inkscape"
   id="svg2"
   version="1.1"
   inkscape:version="0.91 r13725"
   width="230.44099"
   height="230.44099"
   viewBox="0 0 230.44099 230.44099"
   sodipodi:docname="asp.svg">
  <metadata
     id="metadata8">
    <rdf:RDF>
      <cc:Work
         rdf:about="">
        <dc:format>image/svg+xml</dc:format>
        <dc:type
           rdf:resource="http://purl.org/dc/dcmitype/StillImage" />
        <dc:title></dc:title>
      </cc:Work>
    </rdf:RDF>
  </metadata>
  <defs
     id="defs6" />
  <sodipodi:namedview
     pagecolor="#ffffff"
     bordercolor="#666666"
     borderopacity="1"
     objecttolerance="10"
     gridtolerance="10"
     guidetolerance="10"
     inkscape:pageopacity="0"
     inkscape:pageshadow="2"
     inkscape:window-width="1168"
     inkscape:window-height="655"
     id="namedview4"
     showgrid="false"
     inkscape:zoom="1.18"
     inkscape:cx="171.83599"
     inkscape:cy="41.408909"
     inkscape:window-x="2196"
     inkscape:window-y="391"
     inkscape:window-maximized="0"
     inkscape:current-layer="svg2" />
  <path
     style="fill:#0c99d5;fill-opacity:1"
     d="m 1.1886068,190.5205 c -1.54691798,-1.54692 -1.54691798,-6.05308 0,-7.6 2.188095,-2.1881 6.729691,-1.44842 7.981954,1.3 1.7032122,3.73814 -0.283306,7.5 -3.960515,7.5 -1.551792,0 -3.361439,-0.54 -4.021439,-1.2 z M 209.47002,190.32693 c -4.28465,-1.86694 -9.19961,-7.8498 -10.55086,-12.8433 -1.64217,-6.06862 -0.65114,-15.7087 2.12219,-20.64318 1.26505,-2.25085 4.09415,-5.33615 6.28688,-6.85621 3.40268,-2.35882 5.17161,-2.81105 12.07359,-3.08662 9.22017,-0.36813 11.99199,0.813 10.55501,4.4977 -0.76596,1.96408 -1.18163,2.07248 -4.28947,1.11866 -12.16492,-3.73352 -23.19427,6.87677 -21.055,20.25502 1.74923,10.93911 10.81852,15.93513 23.22235,12.79254 0.74036,-0.18757 1.74375,0.68606 2.22978,1.9414 0.74404,1.92177 0.48154,2.43533 -1.6612,3.25 -3.64589,1.38616 -15.38027,1.12213 -18.93327,-0.42601 z M 12.988607,168.7205 l 0,-22 4.75,0.0123 4.75,0.0123 4.5,7.62799 c 2.475,4.19539 6.40682,11.05238 8.73739,15.23774 l 4.23739,7.60974 0.0126,-15.25 0.01262,-15.25007 3.5,0 3.5,0 0,22 0,22 -4.25,-0.0192 c -4.17999,-0.0188 -4.31539,-0.13002 -8.21994,-6.75 -2.18347,-3.70196 -6.34597,-11.00578 -9.250003,-16.23071 l -5.280057,-9.49984 0,16.24988 0,16.24987 -3.5,0 -3.5,0 0,-22 z m 39,0 0,-22 28.5,0 28.500003,0 0,3.5 0,3.5 -6,0 -6.000003,0 0,18.5 0,18.5 -4,0 -4,0 0,-18.5 0,-18.5 -14.5,0 -14.5,0 0,5.5 0,5.5 8,0 8,0 0,3.5 0,3.5 -8,0 -8,0 0,6 0,6 9,0 9,0 0,3.5 0,3.5 -13,0 -13,0 0,-22 z m 69.098863,16.75 c 0.0544,-2.8875 0.61687,-12.675 1.25,-21.75 l 1.15114,-16.5 4.0562,-0.29803 4.0562,-0.29803 5.21191,16.29803 c 2.86655,8.96392 5.22771,16.97303 5.24702,17.79803 0.0193,0.825 1.10781,-2.1 2.41887,-6.5 1.31106,-4.4 3.9344,-12.275 5.82964,-17.5 l 3.4459,-9.5 3.96353,-0.29999 3.96354,-0.3 0.62677,9.8 c 0.34473,5.38999 0.93136,15.31249 1.30364,22.04999 l 0.67686,12.25 -2.99807,0 -2.99808,0 -0.65196,-10.65556 c -0.35859,-5.86056 -0.65407,-14.07306 -0.65663,-18.25 l -0.005,-7.59444 -6.14684,18.25 c -5.92475,17.59062 -6.24356,18.25 -8.82367,18.25 -2.5954,0 -2.83709,-0.52475 -7.94469,-17.25 -2.89732,-9.4875 -5.41405,-17.7 -5.59272,-18.25 -0.17868,-0.55 -0.36244,2.15 -0.40836,6 -0.0459,3.85 -0.3752,12.0625 -0.73174,18.25 l -0.64824,11.25 -2.84721,0 c -2.78062,0 -2.8449,-0.12279 -2.74835,-5.25 z m 49.94667,-15.5 c -3.52317,-11.4125 -6.59785,-21.3125 -6.83263,-22 -0.28693,-0.84021 0.69896,-1.25 3.00732,-1.25 l 3.43419,0 4.75639,16.25 c 2.61601,8.9375 5.00135,17.12338 5.30075,18.19085 0.36153,1.28897 1.32543,-0.7263 2.8698,-6 1.27898,-4.36747 3.84642,-12.44085 5.70542,-17.94085 3.26541,-9.66098 3.48735,-10.01062 6.54661,-10.31336 1.74164,-0.17235 3.16946,0.0526 3.17294,0.5 0.003,0.44735 -3.25903,10.37154 -7.25,22.05376 l -7.25632,21.24041 -3.52436,0.01 -3.52436,0.01 -6.40575,-20.75 z M 8.8244984e-6,130.07528 C 0.03655882,127.3352 6.5959408,108.11739 10.938105,98.028607 23.870323,67.981303 42.742417,45.052174 57.692647,41.22298 c 3.27801,-0.839594 13.34162,-1.189618 31.79596,-1.1059 25.785393,0.116975 27.186063,0.221572 31.136013,2.325121 9.97005,5.309561 16.41986,19.752625 24.3955,54.628836 1.74208,7.617803 3.48422,13.467803 3.87145,13.000003 0.38722,-0.4678 1.72376,-4.22554 2.97009,-8.35054 1.24633,-4.125003 5.21056,-16.674523 8.80941,-27.887817 6.41569,-19.990017 6.64359,-20.489954 11.68045,-25.622645 8.30638,-8.464421 12.32221,-9.489541 37.1746,-9.489541 11.25437,0 20.45227,0.3375 20.43978,0.75 -0.0234,0.772214 -2.18307,4.788135 -12.77228,23.75 -20.62035,36.924433 -36.8664,58.724083 -47.28693,63.451683 -4.06518,1.84429 -6.53483,2.0044 -30.91808,2.0044 -30.23437,0 -31.72392,-0.31079 -38.29753,-7.99058 -4.377553,-5.11417 -10.465683,-20.21545 -13.693313,-33.965503 -4.08532,-17.403889 -6.16363,-25.453598 -6.92122,-26.80735 -0.91612,-1.637002 -13.02139,12.202559 -16.01319,18.30735 -1.07816,2.2 -4.00808,10.42461 -6.51093,18.27691 -5.37814,16.873103 -7.11905,20.492383 -12.22909,25.423743 -7.06761,6.82049 -11.71648,8.17472 -29.58473,8.61809 -8.6625002,0.21495 -15.74486918,0.006 -15.7385981755016,-0.46396 z M 187.98861,125.7205 c 0,-1.65 -0.45,-3 -1,-3 -0.55,0 -1,-0.675 -1,-1.5 0,-1.08132 1.10756,-1.5 3.96806,-1.5 3.3116,0 4.20727,0.45495 5.41399,2.75 l 1.44592,2.75 0.69443,-2.75 c 1.14884,-4.54959 3.4776,-3.4225 3.4776,1.68312 0,4.26322 -0.11328,4.42989 -2.95574,4.34908 -1.81226,-0.0515 -3.12142,-0.70267 -3.384,-1.68312 -0.35872,-1.33944 -0.44709,-1.31494 -0.54426,0.15092 -0.20876,3.14939 -2.96696,1.92989 -3.3926,-1.5 l -0.40333,-3.25 -0.16003,3.25 c -0.20125,4.08699 -2.16004,4.31369 -2.16004,0.25 z"
     id="path4140"
     inkscape:connector-curvature="0" />
</svg>
