<?xml version="1.0" encoding="UTF-8" standalone="no"?>
<!-- Created with Inkscape (http://www.inkscape.org/) -->

<svg
   xmlns:dc="http://purl.org/dc/elements/1.1/"
   xmlns:cc="http://creativecommons.org/ns#"
   xmlns:rdf="http://www.w3.org/1999/02/22-rdf-syntax-ns#"
   xmlns:svg="http://www.w3.org/2000/svg"
   xmlns="http://www.w3.org/2000/svg"
   xmlns:sodipodi="http://sodipodi.sourceforge.net/DTD/sodipodi-0.dtd"
   xmlns:inkscape="http://www.inkscape.org/namespaces/inkscape"
   id="svg2"
   version="1.1"
   inkscape:version="0.91 r13725"
   width="2500"
   height="2500"
   viewBox="0 0 2500 2500"
   sodipodi:docname="bry.svg">
  <metadata
     id="metadata8">
    <rdf:RDF>
      <cc:Work
         rdf:about="">
        <dc:format>image/svg+xml</dc:format>
        <dc:type
           rdf:resource="http://purl.org/dc/dcmitype/StillImage" />
        <dc:title></dc:title>
      </cc:Work>
    </rdf:RDF>
  </metadata>
  <defs
     id="defs6" />
  <sodipodi:namedview
     pagecolor="#ffffff"
     bordercolor="#666666"
     borderopacity="1"
     objecttolerance="10"
     gridtolerance="10"
     guidetolerance="10"
     inkscape:pageopacity="0"
     inkscape:pageshadow="2"
     inkscape:window-width="1831"
     inkscape:window-height="1173"
     id="namedview4"
     showgrid="false"
     inkscape:zoom="0.13"
     inkscape:cx="-430.76925"
     inkscape:cy="865.625"
     inkscape:window-x="80"
     inkscape:window-y="-9"
     inkscape:window-maximized="1"
     inkscape:current-layer="svg2" />
  <path
     style="fill:#000000"
     d="m 771.65093,2105.2307 c 0.44945,-2.2663 20.94462,-97.2143 45.54483,-210.9956 l 44.72764,-206.875 159.2927,-0.3666 c 161.0181,-0.3708 198.7548,0.3181 228.3456,4.1681 47.7146,6.208 89.2841,20.3964 119.3589,40.7394 14.0901,9.5307 35.8709,30.9467 43.8629,43.1282 22.0587,33.6223 31.252,73.0299 27.2205,116.6826 -5.2193,56.5143 -25.6243,100.295 -63.5455,136.3426 -44.3455,42.1546 -104.2006,66.1197 -194.0748,77.7051 -20.1131,2.5927 -25.4764,2.6702 -216.08745,3.1252 l -195.4625,0.4665 0.81719,-4.1205 z m 904.63187,-258.1831 c 0.6233,-2.5781 21.0879,-97.1207 45.4768,-210.0946 24.389,-112.9739 44.6649,-205.927 45.0576,-206.5625 0.9411,-1.5228 300.177,-1.4528 339.9415,0.079 38.9868,1.5023 63.654,4.6819 91.875,11.8429 82.7206,20.9901 132.8771,70.2278 144.5053,141.8582 2.2562,13.8987 2.1978,47.18 -0.1113,63.4227 -10.2385,72.0165 -49.7021,126.3967 -117.2899,161.6236 -43.6671,22.7594 -98.1206,36.2088 -167.104,41.2729 -10.0236,0.7358 -91.2986,1.24 -200.1796,1.2419 l -183.3045,0 1.1333,-4.6875 z M 30.358105,1445.7976 c 0.353546,-1.2031 20.111415,-92.4687 43.906378,-202.8125 23.794962,-110.3437 44.119937,-204.4219 45.166607,-209.0625 l 1.90305,-8.4375 170.21231,0.013 c 103.10357,0.01 177.35836,0.516 188.33731,1.2896 123.51121,8.7039 196.39789,57.0919 216.45166,143.698 3.22638,13.9338 4.49329,49.8393 2.36744,67.0953 -6.37047,51.7107 -27.07056,94.2737 -62.28909,128.0772 -49.78206,47.7821 -125.71009,74.8 -227.78001,81.0525 -12.22537,0.7489 -93.58334,1.2658 -199.77174,1.2692 -170.029033,0.01 -179.11401,-0.1056 -178.503915,-2.1818 z m 865.151195,-0.625 c 0.37024,-1.5469 20.34734,-93.9375 44.39356,-205.3125 24.04621,-111.375 44.34136,-205.1719 45.10033,-208.4375 l 1.37992,-5.9375 170.18779,0.013 c 103.0869,0.01 177.3341,0.516 188.3128,1.2896 78.9256,5.5619 135.546,26.5833 173.1332,64.2788 30.6327,30.7209 44.8818,65.0344 46.4888,111.9498 1.4276,41.6811 -5.8691,75.7679 -23.5719,110.1161 -41.0363,79.6219 -132.4808,125.3196 -267.3001,133.5782 -12.2248,0.7488 -93.5636,1.2658 -199.7113,1.2692 l -179.08626,0.01 0.67316,-2.8125 z m 904.3744,-255.0341 c 0,-0.4019 89.6343,-415.12735 90.6318,-419.34085 l 0.6658,-2.8125 173.5447,0 c 104.6231,0 179.9462,0.4984 189.6637,1.255 120.6508,9.3939 193.3968,58.9398 211.9716,144.36996 3.551,16.332 4.3962,49.1507 1.7767,68.9938 -6.4763,49.05799 -25.6168,89.06999 -58.2099,121.68399 -20.8189,20.8322 -42.3845,35.6085 -71.2944,48.8493 -46.3085,21.2094 -100.5941,32.689 -170.672,36.0915 -21.2999,1.0341 -368.078,1.8913 -368.078,0.9098 z M 146.81104,807.67265 c 0.4348,-2.2344 20.85982,-96.875 45.38892,-210.3125 l 44.59836,-206.25 173.10522,-0.37619 c 118.05386,-0.25655 178.86938,0.0631 191.23022,1.0052 99.09105,7.55213 165.96385,42.61594 196.9031,103.24335 10.91566,21.38991 16.57234,44.30428 17.71296,71.75264 2.36014,56.7944 -16.66746,112.4404 -51.71207,151.2313 -48.06353,53.2015 -121.66348,83.2276 -225.16684,91.8599 -19.18574,1.6 -52.80863,1.9088 -207.86914,1.9088 l -184.98129,0 0.79055,-4.0625 z m 865.01626,0.051 c 0.5031,-2.2625 20.9676,-96.9262 45.4767,-210.3637 l 44.562,-206.25 182.4463,0 c 188.6176,0 190.7043,0.0481 220.5714,5.08698 98.4956,16.61713 158.2121,65.96609 173.0884,143.03802 2.8915,14.98009 3.757,39.20926 2.0317,56.875 -8.7997,90.1052 -61.083,154.4071 -153.4075,188.672 -22.5235,8.3593 -50.8722,15.5122 -79.6632,20.1006 -38.5871,6.1495 -32.8398,5.9945 -240.5975,6.4894 l -195.423,0.4656 0.9147,-4.1138 z"
     id="path4140"
     inkscape:connector-curvature="0" />
</svg>
