<?xml version="1.0" encoding="UTF-8" standalone="no"?>
<!-- Created with Inkscape (http://www.inkscape.org/) -->

<svg
   xmlns:dc="http://purl.org/dc/elements/1.1/"
   xmlns:cc="http://creativecommons.org/ns#"
   xmlns:rdf="http://www.w3.org/1999/02/22-rdf-syntax-ns#"
   xmlns:svg="http://www.w3.org/2000/svg"
   xmlns="http://www.w3.org/2000/svg"
   xmlns:sodipodi="http://sodipodi.sourceforge.net/DTD/sodipodi-0.dtd"
   xmlns:inkscape="http://www.inkscape.org/namespaces/inkscape"
   id="svg2"
   version="1.1"
   inkscape:version="0.91 r13725"
   width="1158.75"
   height="1158.75"
   viewBox="0 0 1158.75 1158.75"
   sodipodi:docname="cpp.svg">
  <metadata
     id="metadata8">
    <rdf:RDF>
      <cc:Work
         rdf:about="">
        <dc:format>image/svg+xml</dc:format>
        <dc:type
           rdf:resource="http://purl.org/dc/dcmitype/StillImage" />
        <dc:title></dc:title>
      </cc:Work>
    </rdf:RDF>
  </metadata>
  <defs
     id="defs6" />
  <sodipodi:namedview
     pagecolor="#ffffff"
     bordercolor="#666666"
     borderopacity="1"
     objecttolerance="10"
     gridtolerance="10"
     guidetolerance="10"
     inkscape:pageopacity="0"
     inkscape:pageshadow="2"
     inkscape:window-width="1831"
     inkscape:window-height="1173"
     id="namedview4"
     showgrid="false"
     inkscape:zoom="0.20366775"
     inkscape:cx="498.125"
     inkscape:cy="579.375"
     inkscape:window-x="1680"
     inkscape:window-y="-9"
     inkscape:window-maximized="1"
     inkscape:current-layer="svg2" />
  <path
     style="fill:#0c99d5;fill-opacity:1"
     d="m 555.58856,1157.5993 c 0,-0.6328 -1.82813,-1.5446 -4.0625,-2.0261 -4.74849,-1.0232 -18.875,-7.7811 -27.8125,-13.3049 -3.4375,-2.1245 -7.9375,-4.8361 -10,-6.0257 -2.0625,-1.1895 -11.24639,-6.737 -20.40863,-12.3277 -9.16225,-5.5907 -16.89086,-10.1649 -17.17471,-10.1649 -0.28385,0 -4.4651,-2.5312 -9.29166,-5.625 -4.82656,-3.0937 -9.07809,-5.625 -9.44784,-5.625 -0.36974,0 -3.87961,-2.0657 -7.79971,-4.5904 -3.9201,-2.5248 -10.50245,-6.5311 -14.62745,-8.9029 -4.125,-2.3719 -9.1875,-5.2828 -11.25,-6.4687 -2.0625,-1.186 -6.95735,-4.211 -10.87745,-6.7222 -3.9201,-2.5112 -7.41711,-4.5658 -7.77113,-4.5658 -0.35401,0 -5.02166,-2.7269 -10.37254,-6.0599 -5.35088,-3.3329 -19.57263,-11.8335 -31.60388,-18.8902 -12.03125,-7.0567 -23.38117,-13.879 -25.22206,-15.1607 -2.97245,-2.0695 -7.44579,-4.7346 -15.40294,-9.1767 -1.375,-0.7676 -13.75,-8.1188 -27.5,-16.3361 -28.61746,-17.10224 -27.36664,-16.35755 -43.83214,-26.09558 -6.82982,-4.0393 -14.38661,-8.60927 -16.79286,-10.1555 -4.98293,-3.20197 -43.37396,-25.99967 -50,-29.69143 -2.40625,-1.34068 -5.21875,-3.08363 -6.25,-3.87324 -1.03125,-0.78961 -3.21769,-2.19168 -4.85876,-3.1157 -7.83412,-4.4111 -11.81849,-6.76242 -25.47716,-15.03504 -8.091,-4.90045 -15.0366,-8.90991 -15.43467,-8.90991 -0.39806,0 -5.21555,-3.16546 -10.70553,-7.03435 -10.31661,-7.27031 -22.215743,-20.2695 -25.599072,-27.96565 -1.057819,-2.40625 -2.939557,-6.34375 -4.18164,-8.75 -1.242083,-2.40625 -3.858046,-8.875 -5.813251,-14.375 l -3.554917,-10 -0.359404,-254.375 c -0.252753,-178.89043 0.04374,-256.78605 0.999142,-262.5 3.193862,-19.10139 11.926607,-36.59951 25.739212,-51.57461 5.73738,-6.22025 17.7328,-15.92539 19.68356,-15.92539 0.42017,0 3.77025,-1.92311 7.44462,-4.27358 3.67438,-2.35047 8.7478,-5.44422 11.27428,-6.875 9.54664,-5.40641 13.26213,-7.60632 33.34359,-19.74251 25.77504,-15.5771 79.15611,-47.41441 85,-50.69536 2.40625,-1.35094 5.78125,-3.43499 7.5,-4.63121 1.71875,-1.19623 5.73204,-3.61428 8.91842,-5.37345 6.51485,-3.59678 63.06717,-37.23144 69.83158,-41.53253 2.40625,-1.52999 18.4375,-11.09729 35.625,-21.26066 17.1875,-10.163366 36.03125,-21.428915 41.875,-25.034549 5.84375,-3.605632 13.71875,-8.330465 17.5,-10.499627 3.78125,-2.169163 7.96714,-4.621765 9.30196,-5.450228 C 468.35974,53.297422 471.80766,51.25 472.35997,51.25 c 0.35284,0 5.30173,-2.962902 10.99755,-6.584229 5.69583,-3.621325 12.04354,-7.415549 14.10604,-8.431607 2.0625,-1.016059 7.58717,-4.29398 12.27706,-7.284269 11.83855,-7.548314 22.54469,-13.666842 32.09794,-18.343891 16.89386,-8.2708451 42.93647,-9.8512307 64.13235,-3.8918461 6.683,1.8789759 24.49939,11.3991671 40.59743,21.6932521 3.63263,2.322927 9.82013,5.960388 13.75,8.083245 3.92987,2.122857 7.98897,4.56757 9.02022,5.432695 1.77336,1.487692 4.09784,2.856749 17.5,10.307074 3.09375,1.71983 7.11902,4.172225 8.94506,5.449766 1.82604,1.277543 6.88854,4.359679 11.25,6.849193 4.36146,2.489513 9.85643,5.628229 12.21104,6.974925 2.3546,1.346695 7.28739,4.371646 10.96176,6.722115 3.67438,2.350467 6.95615,4.273577 7.29283,4.273577 0.33669,0 5.40786,3.09375 11.26927,6.875 5.86141,3.78125 10.881,6.875 11.15463,6.875 0.27362,0 9.67591,5.42184 20.89396,12.04853 19.59602,11.5757 22.67016,13.43849 34.43215,20.86437 2.90714,1.8354 5.62114,3.3371 6.03111,3.3371 0.40999,0 4.65834,2.53125 9.44079,5.625 4.78245,3.09375 8.8774,5.625 9.0999,5.625 0.2225,0 7.88037,4.5 17.0175,10 9.13712,5.5 16.80679,10 17.04369,10 0.23691,0 4.23337,2.43102 8.88102,5.40229 4.64766,2.97125 12.10654,7.49407 16.57529,10.05072 4.46875,2.55664 8.96875,5.18248 10,5.83519 5.96739,3.77699 36.50764,22.03263 41.25,24.65746 8.03282,4.44608 14.27445,8.18621 15,8.98835 0.58042,0.64171 3.2063,2.22335 9.375,5.64683 3.81752,2.11862 16.72941,9.80925 20.01125,11.91916 2.62544,1.68791 20.42559,12.16779 33.65419,19.8139 11.8314,6.8386 20.9595,15.52962 29.0783,27.6861 2.5253,3.78125 5.0597,7.19512 5.6318,7.5864 0.5722,0.39127 2.9843,5.32074 5.3603,10.95436 8.7662,20.78554 8.2442,2.0072 7.8581,282.70924 -0.3293,239.44805 -0.4695,253.52949 -2.5954,260.61094 -3.5612,11.86306 -12.4597,29.25021 -19.8388,38.76406 -5.8332,7.5207 -22.2153,21.77192 -25.1165,21.84944 -0.5262,0.0141 -3.9012,1.9016 -7.5,4.19455 -8.7875,5.59888 -25.24423,15.48302 -32.16824,19.3207 -3.09375,1.71474 -7.03125,4.09642 -8.75,5.29265 -1.71875,1.19622 -5.09375,3.2804 -7.5,4.63151 -9.22244,5.17837 -58.28553,34.52164 -61.44296,36.74731 -1.82488,1.28636 -3.69514,2.33884 -4.15612,2.33884 -0.46098,0 -4.75107,2.53125 -9.53352,5.625 -4.78245,3.09375 -8.94511,5.625 -9.25038,5.625 -0.30525,0 -14.14058,8.15625 -30.74518,18.125 -16.60459,9.9687 -30.39404,18.125 -30.64322,18.125 -0.24918,0 -4.28601,2.3906 -8.97075,5.3125 -4.68472,2.9219 -9.61235,5.9699 -10.95027,6.7734 -1.33794,0.8036 -7.4951,4.5106 -13.6826,8.2378 -6.1875,3.7273 -19.6875,11.7161 -30,17.753 -10.3125,6.0368 -20.15625,11.9355 -21.875,13.1082 -1.71875,1.1726 -6.78125,4.2211 -11.25,6.7743 -4.46875,2.5532 -9.21966,5.3225 -10.5576,6.154 -1.33793,0.8315 -6.11943,3.8088 -10.62555,6.6162 -4.50613,2.8073 -8.7552,5.339 -9.4424,5.6258 -0.6872,0.2868 -4.51979,2.4899 -8.51688,4.8956 -3.99707,2.4058 -8.22067,4.9367 -9.38577,5.6242 -15.45558,9.12 -47.5378,28.2499 -53.3468,31.8094 -9.18139,5.6261 -17.42145,9.4674 -22.8125,10.6347 -2.23438,0.4837 -4.0625,1.3974 -4.0625,2.0302 0,0.6595 -9.87233,1.1507 -23.125,1.1507 -13.25268,0 -23.125,-0.4912 -23.125,-1.1507 z m 64.42692,-237.03942 c 8.22144,-1.06708 16.91683,-2.44569 19.32308,-3.06359 2.40625,-0.61789 9.48671,-2.28954 15.73437,-3.71478 11.87614,-2.7092 28.92052,-7.78397 34.26563,-10.2022 1.71875,-0.77758 4.53125,-1.96667 6.25,-2.6424 1.71875,-0.67572 4.10174,-1.72546 5.29554,-2.33275 1.1938,-0.60728 2.77501,-1.10416 3.51381,-1.10416 1.10147,0 15.67703,-7.09703 35.30304,-17.18953 6.80206,-3.49788 34.15903,-22.346 44.01261,-30.32332 14.69258,-11.89491 38.86321,-36.29684 50.2749,-50.75598 10.03619,-12.71629 25.32615,-34.65422 25.3779,-36.41201 0.0153,-0.51929 1.12777,-2.35041 2.4722,-4.06916 4.47781,-5.72455 3.39116,-7.60028 -8.32773,-14.375 -5.94617,-3.4375 -12.27058,-7.09375 -14.05425,-8.125 -1.78366,-1.03125 -6.33677,-3.78817 -10.11802,-6.12649 -6.48745,-4.01184 -8.54133,-5.21501 -19.46544,-11.40295 -2.45599,-1.39118 -5.97161,-3.5742 -7.8125,-4.85112 -4.84977,-3.36403 -34.66436,-21.08499 -42.6935,-25.37583 -3.76554,-2.01232 -7.42179,-4.12273 -8.125,-4.68979 -2.42421,-1.95481 -28.4859,-17.63789 -28.7216,-17.28373 -25.80281,38.77358 -49.47292,59.45188 -84.43196,73.76007 -35.17548,14.39679 -74.89566,15.4045 -111.875,2.83833 C 515.22913,739.3858 497.60269,730.38906 487.10103,723.15501 468.69397,710.47534 445.22976,685.12608 437.89881,670 c -1.4994,-3.09375 -4.54011,-9.28125 -6.75712,-13.75 -7.35743,-14.83005 -11.41209,-28.70363 -15.41276,-52.73676 -6.04286,-36.30124 2.37267,-76.59319 23.70047,-113.47344 3.0752,-5.31768 13.3592,-18.81997 20.20915,-26.53346 18.33775,-20.64948 48.14469,-39.28989 73.45001,-45.93351 3.09375,-0.81224 7.23686,-1.98032 9.20693,-2.59574 1.97006,-0.61543 11.07417,-2.08677 20.23137,-3.26963 15.82736,-2.04447 17.44036,-2.04149 32.66808,0.0605 8.81023,1.21613 18.83112,2.97758 22.26862,3.91433 3.4375,0.93675 7.65625,2.05715 9.375,2.48978 6.98115,1.75725 13.62209,4.71853 30.625,13.65609 21.33928,11.21695 45.53554,34.09898 58.82537,55.6302 2.56023,4.14792 5.27814,7.54158 6.03981,7.54149 0.76165,-10e-5 5.7743,-2.8126 11.13922,-6.25 5.36492,-3.43741 10.03258,-6.24984 10.37255,-6.24984 0.33998,0 3.8255,-2.05462 7.7456,-4.56583 3.9201,-2.51122 8.81495,-5.53617 10.87745,-6.72212 14.44965,-8.30865 20.67405,-11.99712 35.46831,-21.01798 C 807.12695,444.58733 814.9006,440 815.20666,440 c 0.30605,0 3.00916,-1.6875 6.0069,-3.75 2.99774,-2.0625 5.72641,-3.75 6.06371,-3.75 0.3373,0 5.2174,-2.85558 10.84466,-6.34571 5.62727,-3.49014 11.99994,-7.35598 14.16152,-8.59075 10.52417,-6.01186 12.06148,-7.05609 12.65872,-8.59855 1.08174,-2.79373 -14.46892,-27.80637 -26.16786,-42.08999 -2.81546,-3.4375 -6.58089,-8.21875 -8.36759,-10.625 -5.9483,-8.0109 -25.05165,-27.5284 -36.21189,-36.99694 -52.6856,-44.6994 -104.27283,-68.41055 -172.98127,-79.50776 -13.35188,-2.15649 -71.44876,-2.14333 -85,0.0193 -31.30201,4.99534 -48.19102,9.38904 -74.7143,19.437 -17.36934,6.58012 -39.8974,17.88891 -51.76093,25.98331 -2.87386,1.96081 -5.59441,3.56513 -6.04565,3.56513 -1.1968,0 -10.59558,6.71835 -25.57348,18.28017 -45.9685,35.48429 -85.64955,88.45335 -106.63568,142.34483 -2.4095,6.1875 -5.36199,13.78125 -6.56107,16.875 -1.19908,3.09375 -2.62483,7.59375 -3.16833,10 -0.5435,2.40625 -2.45152,9.71875 -4.24005,16.25 -6.09421,22.25454 -7.68402,31.94731 -10.80007,65.84581 -2.01342,21.90329 0.8627,70.68996 5.10852,86.65419 0.63996,2.40625 1.42274,6.0625 1.7395,8.125 0.49738,3.2385 4.93405,20.72067 8.24795,32.5 5.16855,18.37172 23.96329,60.8715 29.79068,67.36445 1.30096,1.44955 2.72623,3.4793 3.1673,4.51055 0.44105,1.03125 3.19673,5.65495 6.12376,10.27489 20.26792,31.99038 47.78127,62.44402 77.8589,86.17947 23.49946,18.54438 59.25201,38.88019 83.08795,47.25988 6.02839,2.11932 8.66887,3.13808 13.75,5.3051 3.78254,1.61317 24.04506,6.87413 42.57733,11.05477 22.29992,5.03058 74.34072,6.55616 101.8496,2.98576 z M 872.80862,618.95979 873.15367,600 l 18.75,0 18.75,0 -0.34505,-19.0625 -0.34506,-19.0625 -18.4375,-0.34591 -18.4375,-0.34593 0,-18.75 0,-18.75 -18.4375,0.34593 -18.4375,0.34591 -0.34572,18.40339 -0.34572,18.40337 -17.57853,0.34663 -17.57854,0.34661 0,18.75 0,18.75 17.57854,0.34661 17.57853,0.34663 0.34572,18.40337 0.34572,18.40339 16.875,0.66705 c 9.28125,0.36689 17.4375,0.60191 18.125,0.52229 0.75494,-0.0874 1.38666,-7.65373 1.59506,-19.10455 z m 139.02998,-0.98784 0,-17.97195 18.125,0 18.125,0 0,-19.375 0,-19.375 -18.125,0 -18.125,0 0,-16.77276 c 0,-9.22503 -0.3415,-17.66253 -0.7588,-18.75 -0.6431,-1.67603 -3.4945,-1.97724 -18.71656,-1.97724 l -17.95784,0 -0.34593,18.4375 -0.34591,18.4375 -17.8125,0.34683 -17.8125,0.34681 0,19.30636 0,19.30636 17.8125,0.34681 17.8125,0.34683 0.34571,18.40244 0.34571,18.40245 17.15429,0.34755 c 9.43483,0.19116 17.85743,-0.14319 18.71683,-0.74299 1.1269,-0.78659 1.5625,-6.09991 1.5625,-19.0625 z"
     id="path4138"
     inkscape:connector-curvature="0" />
</svg>
