<?xml version="1.0" encoding="UTF-8" standalone="no"?>
<!-- Created with Inkscape (http://www.inkscape.org/) -->

<svg
   xmlns:dc="http://purl.org/dc/elements/1.1/"
   xmlns:cc="http://creativecommons.org/ns#"
   xmlns:rdf="http://www.w3.org/1999/02/22-rdf-syntax-ns#"
   xmlns:svg="http://www.w3.org/2000/svg"
   xmlns="http://www.w3.org/2000/svg"
   xmlns:sodipodi="http://sodipodi.sourceforge.net/DTD/sodipodi-0.dtd"
   xmlns:inkscape="http://www.inkscape.org/namespaces/inkscape"
   id="svg2"
   version="1.1"
   inkscape:version="0.91 r13725"
   width="1536"
   height="1536"
   viewBox="0 0 1536 1536"
   sodipodi:docname="csh.svg">
  <metadata
     id="metadata8">
    <rdf:RDF>
      <cc:Work
         rdf:about="">
        <dc:format>image/svg+xml</dc:format>
        <dc:type
           rdf:resource="http://purl.org/dc/dcmitype/StillImage" />
        <dc:title></dc:title>
      </cc:Work>
    </rdf:RDF>
  </metadata>
  <defs
     id="defs6" />
  <sodipodi:namedview
     pagecolor="#ffffff"
     bordercolor="#666666"
     borderopacity="1"
     objecttolerance="10"
     gridtolerance="10"
     guidetolerance="10"
     inkscape:pageopacity="0"
     inkscape:pageshadow="2"
     inkscape:window-width="1831"
     inkscape:window-height="1173"
     id="namedview4"
     showgrid="false"
     inkscape:zoom="0.15364583"
     inkscape:cx="768"
     inkscape:cy="768"
     inkscape:window-x="80"
     inkscape:window-y="-9"
     inkscape:window-maximized="1"
     inkscape:current-layer="svg2" />
  <path
     style="fill:#690081;fill-opacity:1"
     d="M 0,768 0,0 l 768,0 768,0 0,768 0,768 -768,0 -768,0 0,-768 z m 564,301.9656 c 35.52389,-3.1423 70.88918,-12.4439 103.33916,-27.1796 16.9065,-7.6774 48.66084,-26.5566 48.66084,-28.9308 0,-0.5603 -1.50361,-2.8943 -3.34135,-5.1869 -1.83775,-2.2926 -5.95995,-7.9933 -9.16046,-12.6683 -3.2005,-4.675 -7.1334,-10.3 -8.73976,-12.5 -3.9434,-5.40069 -30.56165,-42.98604 -39.25843,-55.43346 -3.85,-5.51039 -7.30186,-10.02961 -7.67079,-10.04271 -0.36894,-0.0131 -4.41894,2.30616 -9,5.15392 -9.84322,6.11892 -29.27915,15.45602 -39.82921,19.13412 -18.0454,6.29122 -34.80632,9.36618 -56.13499,10.29851 -57.81216,2.52714 -107.06611,-16.75006 -148.39572,-58.07967 -35.05209,-35.05209 -53.97651,-76.32853 -57.56939,-125.56582 -3.29986,-45.22148 8.02314,-89.54429 31.71214,-124.13426 8.49012,-12.39701 11.64156,-16.1775 24.32714,-29.183 29.11062,-29.84477 61.64761,-48.09941 99.12255,-55.61199 17.44253,-3.49669 28.05002,-4.31544 48.80713,-3.76724 30.57015,0.80737 54.19522,6.25492 78.56005,18.11466 6.0891,2.9639 13.99609,7.21871 17.57109,9.45513 5.99068,3.74761 6.60534,3.93284 7.84437,2.36402 0.73941,-0.93622 7.22882,-10.70221 14.42091,-21.70221 7.1921,-11 16.75844,-25.625 21.25854,-32.5 24.15427,-36.90155 27.47577,-42.13269 27.47116,-43.26536 -0.007,-1.71626 -14.91609,-10.58303 -33.99498,-20.21755 -27.64269,-13.95908 -57.92108,-23.55445 -92.24087,-29.23158 -15.27361,-2.52653 -18.19875,-2.68904 -48.25913,-2.68101 -30.0417,0.008 -33.01678,0.17471 -48.61486,2.72394 -63.73237,10.41592 -113.93656,34.24154 -161.38514,76.58926 -16.23378,14.4886 -41.69555,42.92843 -51.25407,57.24884 -29.6133,44.36613 -42.97982,77.40425 -51.92102,128.33346 -2.73751,15.59293 -2.80863,16.92863 -2.79521,52.5 0.0134,35.44674 0.0944,36.9617 2.80898,52.5 9.32104,53.35436 26.67858,94.25915 57.35496,135.16271 30.02088,40.02952 72.34784,75.79599 115.16466,97.31459 32.49145,16.3293 72.79999,27.7484 109.1417,30.9189 13.84294,1.2076 48.69118,1.2467 62,0.069 z M 894.95083,994.25 C 907.2711,959.7375 919.24405,926.325 921.55739,920 l 4.20607,-11.5 52.61827,-0.25884 c 28.94007,-0.14236 52.61827,0.0109 52.61827,0.34061 0,0.32969 -7.0275,20.24617 -15.6167,44.25884 -8.5893,24.01266 -17.86355,49.95939 -20.60959,57.65939 -2.74604,7.7 -7.24467,20.3 -9.99695,28 -2.75228,7.7 -5.23123,15.0166 -5.50876,16.2591 l -0.50462,2.259 51.79832,-0.259 51.7984,-0.2591 26.0975,-73 c 14.3537,-40.15 26.4492,-73.5625 26.879,-74.25 0.6088,-0.97384 12.2195,-1.25 52.5546,-1.25 l 51.7732,0 1.0718,-3.25 c 0.5894,-1.7875 2.843,-7.975 5.008,-13.75 2.1649,-5.775 6.9471,-18.6 10.6271,-28.5 3.68,-9.9 7.343,-19.575 8.14,-21.5 C 1266.4146,836.40319 1275,813.03628 1275,812.45293 1275,812.20382 1251.7762,812 1223.3916,812 l -51.6084,0 0.6771,-2.75 c 0.3724,-1.5125 2.8777,-9.05 5.5675,-16.75 2.6897,-7.7 6.9729,-20.075 9.5183,-27.5 9.8669,-28.78294 14.6763,-42.72207 16.6474,-48.25 l 2.0504,-5.75 50.628,-0.004 50.6281,-0.004 1.6863,-4.24625 c 0.9274,-2.33544 4.6569,-12.12125 8.2878,-21.74625 3.6309,-9.625 8.2293,-21.775 10.2188,-27 1.9894,-5.225 4.6414,-12.2 5.8933,-15.5 1.2518,-3.3 3.8287,-10.05 5.7263,-15 1.8976,-4.95 3.7589,-10.0125 4.1362,-11.25 l 0.6861,-2.25 -51.5674,0 C 1264.2053,614 1241,613.61958 1241,613.15462 c 0,-0.46496 3.8691,-11.82746 8.5979,-25.25 4.7289,-13.42254 12.877,-36.55462 18.107,-51.40462 5.2299,-14.85 12.8359,-36.42367 16.902,-47.94149 4.0662,-11.51782 7.3931,-21.53433 7.3931,-22.25892 0,-1.07637 -9.5362,-1.27005 -52.1165,-1.05851 l -52.1164,0.25892 -2.2643,6.5 c -8.1517,23.40037 -23.9038,68.32647 -25.4201,72.5 -6.372,17.53732 -22.5318,63.64554 -23.5697,67.25 l -0.6478,2.25 -52.5396,0 c -41.6127,0 -52.443,-0.25997 -52.0752,-1.25 0.2555,-0.6875 3.9327,-11.15 8.1716,-23.25 15.2503,-43.53182 28.83,-82.09418 30.6369,-87 C 1073.1316,494.15733 1083,465.88922 1083,465.42989 1083,465.19345 1059.4334,465 1030.6297,465 l -52.37036,0 -2.52263,7.25 c -1.38745,3.9875 -5.53134,15.8 -9.20864,26.25 -3.6773,10.45 -9.9888,28.45 -14.02556,40 -4.03675,11.55 -9.80445,27.975 -12.8171,36.5 -3.01265,8.525 -6.89715,19.55 -8.63221,24.5 -1.73507,4.95 -3.63643,10.2375 -4.22526,11.75 l -1.07058,2.75 -52.28086,0 -52.28085,0 -1.00507,2.75 c -0.55279,1.5125 -3.12569,8.6 -5.71755,15.75 -2.59187,7.15 -5.94968,16.375 -7.46182,20.5 C 795.98928,683.06708 787,708.51543 787,709.65111 787,710.76554 795.97015,711 838.60699,711 c 48.75267,0 51.56781,0.0968 50.8987,1.75 -0.38956,0.9625 -4.25407,12.325 -8.5878,25.25 -4.33373,12.925 -11.67443,34.75 -16.31267,48.5 l -8.43317,25 -51.70264,0.5 -51.70264,0.5 -5.37187,14.5 c -2.95453,7.975 -6.25734,16.75 -7.33957,19.5 -1.08224,2.75 -4.89388,12.875 -8.47032,22.5 -3.57644,9.625 -8.09615,21.72374 -10.04381,26.88608 -1.94766,5.16234 -3.5412,9.99984 -3.5412,10.75 0,1.13424 8.67253,1.36392 51.5,1.36392 38.99844,0 51.5,0.28738 51.5,1.18384 0,0.65112 -11.7,33.89414 -26,73.87338 -14.3,39.97928 -26,72.97148 -26,73.31618 0,0.3446 23.29883,0.6266 51.77518,0.6266 l 51.77517,0 22.40048,-62.75 z M 958,811.33946 c 0,-0.3633 2.89084,-8.8008 6.42408,-18.75 3.53325,-9.9492 11.01557,-31.13946 16.62739,-47.08946 5.61182,-15.95 10.64,-30.2375 11.17374,-31.75 l 0.97044,-2.75 54.90215,0 c 30.1962,0 54.9022,0.38015 54.9022,0.84477 0,1.1835 -2.0327,6.98988 -15.9833,45.65523 -6.747,18.7 -13.2971,36.925 -14.5559,40.5 -1.2588,3.575 -3.0085,8.1875 -3.8882,10.25 l -1.5994,3.75 -54.4866,0 C 982.51896,812 958,811.70276 958,811.33946 Z"
     id="path4138"
     inkscape:connector-curvature="0" />
</svg>
