<?xml version="1.0" encoding="UTF-8" standalone="no"?>
<!-- Created with Inkscape (http://www.inkscape.org/) -->

<svg
   xmlns:dc="http://purl.org/dc/elements/1.1/"
   xmlns:cc="http://creativecommons.org/ns#"
   xmlns:rdf="http://www.w3.org/1999/02/22-rdf-syntax-ns#"
   xmlns:svg="http://www.w3.org/2000/svg"
   xmlns="http://www.w3.org/2000/svg"
   xmlns:sodipodi="http://sodipodi.sourceforge.net/DTD/sodipodi-0.dtd"
   xmlns:inkscape="http://www.inkscape.org/namespaces/inkscape"
   id="svg2"
   version="1.1"
   inkscape:version="0.91 r13725"
   width="516.25"
   height="516.25"
   viewBox="0 0 516.25 516.25"
   sodipodi:docname="csharp.svg">
  <metadata
     id="metadata8">
    <rdf:RDF>
      <cc:Work
         rdf:about="">
        <dc:format>image/svg+xml</dc:format>
        <dc:type
           rdf:resource="http://purl.org/dc/dcmitype/StillImage" />
        <dc:title></dc:title>
      </cc:Work>
    </rdf:RDF>
  </metadata>
  <defs
     id="defs6" />
  <sodipodi:namedview
     pagecolor="#ffffff"
     bordercolor="#666666"
     borderopacity="1"
     objecttolerance="10"
     gridtolerance="10"
     guidetolerance="10"
     inkscape:pageopacity="0"
     inkscape:pageshadow="2"
     inkscape:window-width="985"
     inkscape:window-height="749"
     id="namedview4"
     showgrid="false"
     inkscape:zoom="0.45714286"
     inkscape:cx="231.25"
     inkscape:cy="258.125"
     inkscape:window-x="1821"
     inkscape:window-y="344"
     inkscape:window-maximized="0"
     inkscape:current-layer="svg2" />
  <path
     style="fill:#0c99d5;fill-opacity:1"
     d="m 244.78932,514.50244 c -2.52211,-0.9008 -40.20961,-22.06877 -83.75,-47.0399 C 35.603513,395.52299 40.081429,398.4183 32.743259,384.5093 L 29.375,378.125 l 0,-119.375 0,-119.375 4.2873,-7.90751 c 4.477064,-8.25753 10.268906,-14.07291 18.403181,-18.478 6.343822,-3.43547 15.595592,-8.74187 33.559519,-19.248234 6.1875,-3.618812 14.34375,-8.272024 18.125,-10.340467 3.78125,-2.068444 7.4375,-4.182362 8.125,-4.697593 1.39548,-1.045816 7.80897,-4.696577 18.125,-10.317329 3.78125,-2.060237 7.44193,-4.183228 8.13485,-4.717758 C 139.48228,62.628685 183.54025,37.220426 195,30.87395 198.78125,28.779871 209.82381,22.41828 219.53902,16.73708 243.9299,2.4739365 244.83807,2.1296658 258.125,2.1099051 c 8.80094,-0.013089 12.33847,0.5302354 16.25,2.4958126 5.30355,2.6650808 52.87934,29.9922313 55,31.5915583 0.6875,0.518488 4.34375,2.628354 8.125,4.688592 3.78125,2.060237 8.84375,4.885219 11.25,6.277739 2.40625,1.39252 13.375,7.731398 24.375,14.086393 26.86051,15.518043 26.57168,15.350201 34.11751,19.825379 C 410.88214,83.23392 414.05903,85 414.30225,85 c 0.24324,0 4.01535,2.156742 8.3825,4.792762 4.36714,2.636019 11.034,6.490664 14.81525,8.565877 7.49207,4.111771 11.41349,6.346361 23.75,13.533731 9.5022,5.53607 19.25571,14.98679 18.2288,17.66288 -0.40089,1.0447 -0.15935,1.49035 0.56509,1.04262 0.69588,-0.43008 2.51757,1.93133 4.04818,5.24758 l 2.78293,6.02955 0,116.875 0,116.875 -3.25139,6.93204 c -5.76252,12.28581 -10.70895,16.39779 -38.62361,32.10783 -2.40625,1.35422 -13.375,7.6837 -24.375,14.06554 -11,6.38184 -21.6875,12.57391 -23.75,13.76016 -2.0625,1.18627 -20.625,11.89099 -41.25,23.78828 -20.625,11.8973 -47.61231,27.45426 -59.97181,34.57105 -12.3595,7.11677 -24.45325,13.49007 -26.875,14.16288 -6.14175,1.70628 -18.51995,1.44295 -23.98887,-0.51034 z m 42.80642,-105.77195 c 39.13015,-7.97422 73.38657,-30.30287 96.09125,-62.63317 3.47216,-4.94417 6.30994,-9.60431 6.30617,-10.35586 -0.004,-0.75155 -14.76939,-9.9083 -32.8125,-20.34832 -29.5783,-17.11447 -32.96017,-18.77459 -34.37629,-16.875 -15.52882,20.83055 -29.47193,30.20755 -51.57732,34.68667 -12.68029,2.56936 -23.252,1.83911 -37.21028,-2.57031 -23.50686,-7.42581 -40.50562,-25.00578 -48.89781,-50.56964 -3.67892,-11.20656 -3.67671,-31.4299 0.005,-42.64394 8.09228,-24.65028 24.49963,-41.49578 49.25138,-50.56661 3.83397,-1.40504 21.77028,-4.22764 24.1444,-3.79955 1.15807,0.20883 5.4806,0.75838 9.6056,1.22124 19.14013,2.14769 40.05283,14.76027 50.9429,30.724 2.11047,3.09375 3.97992,5.81197 4.15432,6.04049 0.49152,0.64403 65.94848,-37.31142 67.73015,-39.27358 0.86757,-0.95542 1.19814,-1.46505 0.73463,-1.13249 -0.46353,0.33258 -2.82038,-2.346 -5.23746,-5.95237 -7.85163,-11.71491 -18.02062,-23.54789 -26.1993,-30.48636 C 310.4839,101.97588 247.25381,93.319041 190,120.8867 c -36.67831,17.66059 -65.15264,49.96272 -78.13621,88.64011 -6.16753,18.37275 -7.35452,26.14342 -7.4235,48.59819 -0.0696,22.65275 0.69218,27.8871 6.9744,47.92275 7.09841,22.63867 19.71624,42.76629 38.55687,61.50484 21.12465,21.0102 47.03548,34.87686 76.90344,41.1563 16.11826,3.38871 44.14911,3.39869 60.72074,0.0216 z M 371.26376,290.3125 c 0.007,-1.89063 0.36242,-5.54688 0.78855,-8.125 0.75755,-4.5832 0.89631,-4.6875 6.23624,-4.6875 l 5.46145,0 0,8.125 0,8.125 4.22937,0 4.22939,0 0.87012,-8.125 0.87011,-8.125 4.9005,0 c 4.76725,0 4.90051,-0.119 4.90051,-4.375 0,-4.1967 -0.18496,-4.375 -4.53855,-4.375 l -4.53855,0 0.77479,-4.6875 c 0.42614,-2.57813 0.78099,-5.59999 0.78855,-6.71524 0.01,-1.40057 1.5841,-2.27885 5.09094,-2.83961 4.83052,-0.77244 5.05825,-1.00793 4.6875,-4.84726 -0.34319,-3.55403 -0.88055,-4.08258 -4.50484,-4.43102 l -4.11518,-0.39562 0.84883,-7.50254 0.84881,-7.50254 -4.85865,0.39817 c -4.56722,0.37427 -4.87889,0.66058 -5.19607,4.77316 -0.72905,9.45259 -1.11328,10 -7.01888,10 l -5.43367,0 0.14498,-7.1875 0.14499,-7.1875 -4.375,0 -4.375,0 -0.38771,6.84771 c -0.4189,7.3985 -1.46368,8.72868 -6.87899,8.75815 -3.21142,0.0175 -3.48269,0.3718 -3.125,4.08164 0.32639,3.3851 0.96489,4.12845 3.8292,4.45803 3.27971,0.37737 3.4375,0.7073 3.4375,7.1875 l 0,6.79197 -5,0 c -4.88095,0 -5,0.10413 -5,4.375 0,4.15761 0.21505,4.375 4.32796,4.375 l 4.32798,0 -0.75873,8.125 -0.75872,8.125 4.55576,0 c 4.13324,0 4.55703,-0.3188 4.56951,-3.4375 z m 3.39654,-22.5 c -0.26799,-0.51563 -0.24454,-3.60938 0.0521,-6.875 l 0.53934,-5.9375 5.49913,0 5.49913,0 0,6.875 0,6.875 -5.55122,0 c -3.05318,0 -5.77049,-0.42188 -6.03848,-0.9375 z"
     id="path4138"
     inkscape:connector-curvature="0" />
</svg>
