<?xml version="1.0" encoding="UTF-8" standalone="no"?>
<!-- Created with Inkscape (http://www.inkscape.org/) -->

<svg
   xmlns:dc="http://purl.org/dc/elements/1.1/"
   xmlns:cc="http://creativecommons.org/ns#"
   xmlns:rdf="http://www.w3.org/1999/02/22-rdf-syntax-ns#"
   xmlns:svg="http://www.w3.org/2000/svg"
   xmlns="http://www.w3.org/2000/svg"
   xmlns:sodipodi="http://sodipodi.sourceforge.net/DTD/sodipodi-0.dtd"
   xmlns:inkscape="http://www.inkscape.org/namespaces/inkscape"
   id="svg2"
   version="1.1"
   inkscape:version="0.91 r13725"
   width="325"
   height="325"
   viewBox="0 0 325 325"
   sodipodi:docname="git.svg">
  <metadata
     id="metadata8">
    <rdf:RDF>
      <cc:Work
         rdf:about="">
        <dc:format>image/svg+xml</dc:format>
        <dc:type
           rdf:resource="http://purl.org/dc/dcmitype/StillImage" />
        <dc:title></dc:title>
      </cc:Work>
    </rdf:RDF>
  </metadata>
  <defs
     id="defs6" />
  <sodipodi:namedview
     pagecolor="#ffffff"
     bordercolor="#666666"
     borderopacity="1"
     objecttolerance="10"
     gridtolerance="10"
     guidetolerance="10"
     inkscape:pageopacity="0"
     inkscape:pageshadow="2"
     inkscape:window-width="1831"
     inkscape:window-height="1173"
     id="namedview4"
     showgrid="false"
     inkscape:zoom="0.72615385"
     inkscape:cx="162.5"
     inkscape:cy="162.5"
     inkscape:window-x="80"
     inkscape:window-y="-9"
     inkscape:window-maximized="1"
     inkscape:current-layer="svg2" />
  <path
     style="fill:#f34f29;fill-opacity:1"
     d="m 158.35819,324.04346 c -1.72799,-0.41063 -4.65299,-1.69226 -6.5,-2.84805 C 146.69733,317.96591 4.4394257,174.97284 2.4582599,171.0234 0.25157096,166.62439 0.23301778,158.7006 2.4172296,153.5 3.6346865,150.60124 17.707772,135.87216 53.534481,100 l 49.437279,-49.5 18.39903,18.374896 18.39902,18.374897 -0.99649,3.609009 c -1.29836,4.702265 -0.38996,12.012168 2.09905,16.891018 C 142.86126,111.64837 150.13469,119 152.00288,119 152.6509,119 153,134.72023 153,163.90122 l 0,44.90123 -3.36069,1.98286 c -13.33765,7.8694 -15.38124,27.31487 -4.06036,38.63574 10.51966,10.51967 27.03382,9.85892 36.73064,-1.46963 4.26979,-4.98829 5.68588,-9.22727 5.66287,-16.95142 -0.0213,-7.13279 -2.49918,-12.42441 -8.32151,-17.7706 L 175,208.95881 l 0,-43.21768 0,-43.21769 15.91154,15.88823 15.91155,15.88823 -0.54343,7.18542 c -0.68737,9.08854 0.60349,13.05617 6.31436,19.40802 5.83878,6.49414 11.07798,8.54196 20.18656,7.89025 14.42983,-1.03245 24.24893,-12.49339 22.95252,-26.79039 -1.29581,-14.2904 -12.96149,-23.95592 -27.2408,-22.57017 l -6.00769,0.58302 -17.47618,-17.49761 -17.47617,-17.4976 0.31957,-6.917474 c 0.35416,-7.666372 -1.44768,-13.123718 -6.18204,-18.723909 -4.62789,-5.474243 -15.66191,-9.06276 -22.86858,-7.437391 l -3.5814,0.807736 -18.1099,-18.129775 C 127.14946,44.638651 119,36.003879 119,35.421645 c 0,-2.090476 30.71214,-31.4032324 34.63336,-33.0553042 5.96238,-2.51205094 13.37966,-2.14204712 18.53502,0.9246015 5.60006,3.331187 148.0731,146.1000977 150.37336,150.6856577 2.20314,4.39193 2.22602,12.31407 0.0506,17.5234 C 320.35105,176.86709 177.22025,320.2278 172,322.33424 c -4.84793,1.95621 -9.9254,2.59238 -13.64181,1.70922 z"
     id="path4138"
     inkscape:connector-curvature="0" />
</svg>
