<?xml version="1.0" encoding="UTF-8" standalone="no"?>
<svg
   xmlns:dc="http://purl.org/dc/elements/1.1/"
   xmlns:cc="http://creativecommons.org/ns#"
   xmlns:rdf="http://www.w3.org/1999/02/22-rdf-syntax-ns#"
   xmlns:svg="http://www.w3.org/2000/svg"
   xmlns="http://www.w3.org/2000/svg"
   xmlns:sodipodi="http://sodipodi.sourceforge.net/DTD/sodipodi-0.dtd"
   xmlns:inkscape="http://www.inkscape.org/namespaces/inkscape"
   width="348"
   height="348"
   viewBox="0 0 348 348"
   version="1.1"
   preserveAspectRatio="xMidYMid"
   id="svg2"
   inkscape:version="0.91 r13725"
   sodipodi:docname="Go.svg">
  <metadata
     id="metadata60">
    <rdf:RDF>
      <cc:Work
         rdf:about="">
        <dc:format>image/svg+xml</dc:format>
        <dc:type
           rdf:resource="http://purl.org/dc/dcmitype/StillImage" />
        <dc:title></dc:title>
      </cc:Work>
    </rdf:RDF>
  </metadata>
  <defs
     id="defs58" />
  <sodipodi:namedview
     pagecolor="#ffffff"
     bordercolor="#666666"
     borderopacity="1"
     objecttolerance="10"
     gridtolerance="10"
     guidetolerance="10"
     inkscape:pageopacity="0"
     inkscape:pageshadow="2"
     inkscape:window-width="1831"
     inkscape:window-height="1173"
     id="namedview56"
     showgrid="false"
     inkscape:zoom="1.9181287"
     inkscape:cx="92.041494"
     inkscape:cy="127.23167"
     inkscape:window-x="1680"
     inkscape:window-y="-9"
     inkscape:window-maximized="1"
     inkscape:current-layer="g4" />
  <g
     id="g4">
    <g
       transform="translate(108.93491,96.951015)"
       id="g18" />
    <g
       id="g4192"
       transform="translate(46.147235,0)">
      <path
         inkscape:connector-curvature="0"
         style="fill:#0c99d5;fill-opacity:1"
         id="path6"
         d="m 3.6856031,188.16498 c 0.4980545,10.25992 10.7579769,5.4786 15.3400779,2.29105 4.382879,-3.08794 5.677821,-0.49805 6.076264,-6.47471 0.298833,-3.98443 0.697277,-7.86926 0.498055,-11.85369 -6.67393,-0.59767 -13.845914,0.9961 -19.3245136,4.98054 -2.888716,1.99222 -8.0684825,8.56654 -2.5898833,11.05681" />
      <path
         inkscape:connector-curvature="0"
         style="fill:#0c99d5;fill-opacity:1"
         id="path8"
         d="m 208.18677,314.27237 c 7.86926,4.88094 22.31284,19.62335 10.45914,26.79533 -11.35564,10.35954 -17.73074,-11.45525 -27.69182,-14.44358 4.28326,-5.87704 9.66225,-11.25603 17.23268,-12.35175 l 0,0 0,0 z" />
      <path
         inkscape:connector-curvature="0"
         style="fill:#0c99d5;fill-opacity:1"
         id="path10"
         d="m 67.336965,330.90739 c -9.263813,1.39456 -14.44358,9.76187 -22.21323,14.04514 -7.271595,4.28327 -10.0607,-1.39455 -10.658365,-2.58988 -1.09572,-0.49806 -0.996109,0.49805 -2.789105,-1.29495 -6.773541,-10.65836 6.972762,-18.42801 14.144747,-23.70739 9.961089,-1.99222 16.236575,6.67393 21.515953,13.54708 l 0,0 0,0 z" />
      <path
         inkscape:connector-curvature="0"
         style="fill:#0c99d5;fill-opacity:1"
         id="path12"
         d="m 251.91595,186.87004 c -0.49805,10.25992 -10.75797,5.4786 -15.34008,2.29105 -4.38287,-3.08794 -5.67782,-0.49806 -6.07626,-6.47471 -0.29883,-3.98443 -0.69728,-7.86926 -0.49805,-11.8537 6.67393,-0.59766 13.84591,0.99611 19.32451,4.98055 2.7891,1.99222 8.06848,8.56654 2.58988,11.05681" />
      <path
         sodipodi:nodetypes="cccccccccccsccssccssccsccccscscccccccccsccccccc"
         inkscape:connector-curvature="0"
         id="path14"
         d="M 123.81641,1.3945312 C 95.028846,3.6855819 67.635058,8.9645876 48.509766,25.699219 17.630388,5.7770392 -10.857975,53.591613 25.400391,65.644531 15.240079,105.09045 26.794946,145.33142 25.201172,185.47461 c -1.494164,36.05914 -10.957337,84.3706 9.064453,116.74414 17.033463,27.69183 53.690952,37.55467 83.873045,38.65039 38.54942,1.39455 85.26729,-8.06974 103.99414,-45.42383 17.92996,-35.56109 12.94926,-79.88808 10.65821,-118.23828 -2.29105,-38.74864 1.99234,-78.095132 -8.06836,-115.449218 35.56109,-12.550972 7.77,-61.26009383 -23.20899,-39.74414 C 181.19305,4.5817649 153.20162,1.3945313 123.81641,1.3945312 Z m 40.80078,18.3964848 c 13.50445,-0.257904 26.75348,6.897701 30.54492,23.109375 9.66226,41.23891 -57.27724,52.096327 -64.34961,11.15625 -1.34475,-21.34786 16.44182,-33.934035 33.80469,-34.265625 z M 83.275391,23.265625 C 98.581495,23.135814 113.64287,32.052377 114.81641,51.460938 117.00785,87.221249 59.929827,96.38531 50.765625,60.724609 45.971851,36.755738 64.802506,23.422293 83.275391,23.265625 Z M 127.1543,71.207031 c 5.95425,0.07286 11.67246,2.543626 13.02343,7.511719 2.98833,11.256031 -27.09373,13.945466 -28.38867,3.884766 -0.33618,-7.620234 7.70977,-11.490162 15.36524,-11.396485 z m -0.58789,26.441407 0,0.697265 12.55078,3.884767 0.69726,0.19922 0,0.69726 c 0,1.49417 0.0996,2.68941 0.29883,5.67774 0.19922,2.7891 0.29883,4.18357 0.29883,5.67773 0,2.09183 -0.0996,3.98435 -0.39844,5.77735 l 0,0.19921 -0.0996,0.0996 c -0.99611,1.89261 -2.19136,2.68944 -5.08008,3.68555 -0.0996,0.0996 -0.0996,0.0996 -0.19921,0.0996 -0.69728,0.29883 -1.0957,0.39843 -1.49415,0.59766 l -0.29882,0.0996 -0.29883,0 c -3.18755,-0.49806 -5.97654,-2.49019 -7.4707,-5.37891 -5.27938,6.3751 -10.45894,6.27548 -13.64649,0.69727 -2.7891,-4.88094 -3.28714,-12.84953 -1.0957,-18.12891 l 0.19922,-0.49805 0.49804,-0.0996 14.14454,-3.585935 0,-0.09961 0.0996,0 z"
         style="fill:#0c99d5;fill-opacity:1" />
      <path
         inkscape:connector-curvature="0"
         style="fill:#0c99d5;fill-opacity:1"
         id="path16"
         d="m 254.60545,180.79377 c -0.99611,-2.09182 -2.88872,-4.48249 -4.68172,-5.77743 -4.5821,-3.28716 -10.45914,-5.08015 -16.5354,-5.27938 -0.19923,-6.17587 -0.39845,-12.94941 -0.39845,-21.51595 l 0,-7.76965 c -0.0996,-24.50428 -0.39844,-35.26226 -1.79299,-48.709726 -1.09572,-10.558755 -2.78911,-20.320622 -5.17977,-29.484825 8.06848,-3.087937 13.34786,-8.168093 15.43969,-14.742412 1.99222,-6.076265 0.99611,-12.949417 -2.39066,-19.025681 -3.48638,-5.976654 -9.06459,-10.459144 -15.5393,-12.25214 -6.97276,-1.892607 -14.54319,-0.498055 -21.81479,4.382879 C 195.23735,15.140856 187.76654,10.957198 179.39922,7.7696498 164.5572,2.2910506 147.32451,0.19922179 123.91595,0.19922179 l 0,0.99610891 -0.0996,-0.99610891 C 98.814008,2.1914397 80.286381,6.0762646 64.946303,13.547082 58.770428,16.535409 53.291829,20.121401 48.510506,24.305058 41.1393,19.722957 33.469261,18.627237 26.396887,20.818677 19.822568,22.810895 14.144747,27.492607 10.757977,33.568872 7.3712062,39.645136 6.5743191,46.617899 8.8653697,52.594552 11.15642,58.571206 16.435798,63.252918 24.305058,66.141634 21.814786,76.202335 20.519844,86.8607 20.320623,98.614786 c -0.199222,11.455254 0.298832,20.619454 2.091828,41.338524 1.294942,15.43969 1.792996,22.51206 1.992218,31.0786 -6.773541,-0.29884 -13.547082,1.49416 -18.6272371,5.17976 -1.7929961,1.29494 -3.785214,3.58599 -4.6817121,5.77743 -1.29494159,2.78911 -0.79688711,5.27938 1.7929962,6.77355 0.3984435,4.78132 3.0879377,6.97276 7.171984,6.57431 2.988327,-0.29883 6.574319,-1.8926 9.662257,-4.08404 0.697276,-0.49806 1.394553,-0.8965 2.091829,-1.19533 0.298833,-0.0996 0.498054,-0.19922 0.796887,-0.29884 0,0 0.597665,-0.19922 0.796887,-0.29883 0.298833,-0.0996 0.597666,-0.19922 0.796887,-0.39844 -0.199221,4.68171 -0.597665,9.56264 -1.494163,20.71906 -0.996109,12.55098 -1.494163,19.42413 -1.693385,27.09417 -0.896498,28.48871 2.490272,49.20778 12.650584,65.64358 3.187548,5.17976 7.072373,9.76187 11.654474,13.94552 -0.896498,0.59767 -4.681712,3.38677 -5.877043,4.28327 -4.183657,3.18755 -7.072373,5.87704 -8.765758,8.86537 -2.19144,3.88483 -2.19144,7.76965 0.298832,11.8537 l 0.09961,0.0996 0.09961,0.0996 c 1.09572,1.09572 1.693385,1.39455 2.490273,1.39455 l 0.09961,0 0.199222,0 0,0 c 0.09961,0.19922 0.199222,0.29883 0.298833,0.49806 0.298832,0.49805 0.597665,0.89649 0.896498,1.29494 2.490272,2.88871 5.976654,3.58599 10.658366,0.79689 2.490272,-1.29495 4.283268,-2.78911 8.068482,-5.97666 0.09961,-0.0996 0.09961,-0.0996 0.199222,-0.19922 6.076264,-5.17977 9.064591,-7.07237 13.547082,-7.76965 l 1.593774,-0.29883 c 0.597665,0.29883 1.195331,0.49805 1.892607,0.79688 14.144747,5.67783 30.580543,8.76576 47.215563,9.36343 21.51596,0.79689 42.23502,-1.89261 59.76654,-8.26771 4.68171,-1.69338 9.06459,-3.6856 13.24825,-5.87704 2.58988,0.99611 4.78132,3.08794 8.96498,7.96887 0.19922,0.19923 0.19922,0.19923 0.29883,0.39845 0.19922,0.19922 0.19922,0.29883 0.29883,0.39844 0.19923,0.29883 0.49806,0.49805 0.69728,0.79689 3.28716,3.88482 5.4786,5.77743 7.96887,6.87315 3.28716,1.39455 6.47471,0.69728 9.76187,-2.29105 5.77743,-3.58599 6.17588,-9.1642 2.39066,-15.5393 -2.68949,-4.48249 -7.3712,-9.1642 -11.75408,-12.15253 5.17976,-5.08016 9.66225,-11.15642 13.14863,-18.02957 9.56265,-19.12529 13.24825,-41.43813 13.04903,-70.12607 -0.0996,-10.16031 -0.49805,-19.02568 -1.59377,-35.95954 l 0,-0.49805 c 0.49805,0.19922 0.99611,0.49805 1.49416,0.8965 3.08794,2.09183 6.67393,3.78521 9.66226,4.08404 4.08404,0.39845 6.77354,-1.79299 7.17198,-6.57431 l 0,0 c 2.49027,-1.59378 2.98833,-4.08405 1.69339,-6.87316 l 0,0 z M 222.92918,18.328405 c 5.97666,1.593774 11.15642,5.777432 14.34397,11.355642 3.18755,5.57821 4.08405,11.853696 2.29105,17.431906 -1.89261,5.877043 -6.67393,10.558755 -14.14475,13.34786 -1.49416,-5.378988 -3.28715,-10.658366 -5.27937,-15.738521 2.88871,-2.490273 4.28327,-5.57821 1.99222,-9.96109 -2.29106,-4.382879 -6.27549,-4.880934 -10.35954,-3.585992 -2.58988,-3.38677 -5.4786,-6.375097 -8.46692,-9.164202 6.57432,-4.183658 13.34786,-5.378989 19.62334,-3.685603 l 0,0 z M 10.558755,51.996887 C 8.4669261,46.617899 9.1642023,40.242802 12.351751,34.664591 c 3.187549,-5.57821 8.367315,-9.961089 14.543191,-11.754085 6.375097,-1.892607 13.248249,-0.996109 20.021789,2.988327 -3.884824,3.486381 -7.371206,7.470817 -10.359533,11.853696 -5.179766,-2.689494 -10.459144,-3.187549 -13.44747,2.291051 -3.087938,5.877043 0.498054,9.562646 5.57821,12.351751 -0.697276,1.693385 -1.394553,3.486381 -1.992218,5.279377 -0.697276,2.19144 -1.394553,4.48249 -1.992218,6.773541 C 17.431907,61.659144 12.650584,57.375875 10.558755,51.996887 l 0,0 z M 22.611673,187.76654 c -0.09961,0 -0.697276,0.19922 -0.697276,0.29883 -0.298833,0.0996 -0.597666,0.19922 -0.896498,0.39844 -0.796887,0.29884 -1.593774,0.79689 -2.390662,1.39456 -2.789105,1.99221 -6.175875,3.48638 -8.7657584,3.6856 -2.9883269,0.29883 -4.6817121,-0.99611 -4.9805448,-4.5821 2.0918288,-0.69728 2.9883269,-1.19533 3.7852141,-2.39066 l -1.5937744,-1.19534 c -0.5976653,0.79689 -1.1953307,1.09572 -2.9883268,1.69339 l 0,0 c -0.099611,0 -0.099611,0 -0.1992218,0.0996 -1.5937743,-0.8965 -1.892607,-2.29105 -0.9961089,-4.28327 0.7968871,-1.79299 2.5898832,-3.88482 4.0840466,-4.98054 4.7813234,-3.48638 11.1564204,-5.17977 17.5315174,-4.78133 0,2.49028 0.09961,4.98055 0,7.37121 0,0.29883 0,0.49806 -0.09961,0.79689 -0.09961,1.39455 -0.09961,1.99222 -0.199222,2.68949 l 0,0 c -0.298832,2.88872 -0.498054,3.28716 -1.593774,3.78522 l 0,0 z m 30.08249,150.31284 c -0.09961,0.0996 -0.09961,0.0996 -0.199221,0.19922 -3.685603,3.18755 -5.4786,4.48249 -7.76965,5.77743 -3.785214,2.29105 -6.375097,1.793 -8.168094,-0.39844 -0.298832,-0.29884 -0.498054,-0.69728 -0.697276,-0.99611 -0.09961,-0.0996 -0.199222,-0.29883 -0.298832,-0.39845 0,0 0,0 0,-0.0996 0.199221,-1.79299 0.896498,-3.08793 2.689494,-5.87704 0.09961,-0.0996 0.09961,-0.0996 0.09961,-0.19922 1.095719,-1.59378 1.593774,-2.49027 2.091828,-3.58599 l -1.792996,-0.79689 c -0.398443,0.8965 -0.896498,1.69339 -1.892607,3.28716 -0.09961,0.0996 -0.09961,0.0996 -0.09961,0.19922 -1.792996,2.58989 -2.589883,4.18366 -2.988326,5.97665 l -0.09961,0 c 0,0 0,0 -0.09961,0 l -0.199222,0 c -0.199222,-0.0996 -0.498055,-0.29883 -0.896498,-0.69727 -3.884825,-6.17588 -0.796887,-11.45525 7.968872,-18.02957 1.095719,-0.79689 4.781322,-3.38677 5.777431,-4.18366 0.199222,0 0.398444,-0.0996 0.597666,-0.19922 5.378988,4.5821 11.654474,8.56653 18.627237,11.85369 l 0,0 c 0,0.0996 0.09961,0.19923 0.199222,0.29884 -4.084047,0.99611 -7.271596,3.08793 -12.849806,7.86926 l 0,0 z M 219.94086,327.22179 c 3.08793,5.17977 2.98832,9.36342 -0.8965,12.25214 -0.29884,-0.59767 -0.49806,-1.29494 -0.8965,-2.29105 0,-0.0996 0,-0.0996 -0.0996,-0.19922 -1.39455,-3.78522 -2.29105,-5.37899 -3.98444,-7.17199 l -1.39455,1.39456 c 1.49416,1.39455 2.19144,2.88871 3.58599,6.37509 0,0.0996 0,0.0996 0.0996,0.19923 0.49806,1.29494 0.79689,2.09182 1.09572,2.7891 -2.58988,2.19144 -4.88093,2.58988 -7.27159,1.49416 -2.09183,-0.8965 -4.08405,-2.7891 -7.2716,-6.37509 -0.19922,-0.19923 -0.39844,-0.49806 -0.59766,-0.79689 -0.0996,-0.0996 -0.19922,-0.19922 -0.29884,-0.39845 -0.19922,-0.19922 -0.19922,-0.19922 -0.29883,-0.39844 -3.6856,-4.28327 -5.87704,-6.57432 -8.2677,-7.86926 5.57821,-3.18755 10.55875,-6.77354 15.04124,-10.9572 4.18366,3.08794 8.86537,7.67004 11.45526,11.95331 l 0,0 z m 1.39455,-32.27393 c -8.56654,17.23268 -23.70739,29.38521 -44.02802,36.75642 -17.33229,6.27549 -37.85214,8.86537 -59.06926,8.06848 -36.557196,-1.29494 -68.233461,-14.04513 -83.075484,-38.15097 -9.96109,-16.03735 -13.248249,-36.45759 -12.351751,-64.54786 0.298833,-7.67004 0.697276,-14.54319 1.693385,-27.09416 1.09572,-14.14475 1.394553,-18.2288 1.693385,-24.6039 0.199222,-4.5821 0.199222,-9.26381 0.09961,-14.24435 C 26.098054,162.36576 25.6,155.393 24.305058,139.75409 22.512062,119.03502 22.014008,109.97043 22.21323,98.614786 22.512062,83.673152 24.50428,70.524514 28.687938,58.073152 35.461479,37.85214 47.912841,24.205447 65.842802,15.340078 80.884047,7.9688716 99.112841,4.1836576 123.91595,2.1914397 c 23.20934,0 40.14319,2.0918288 54.786,7.4708171 17.53151,6.4747082 30.58054,17.8303502 39.54552,35.2622572 5.77743,14.144747 9.1642,29.385214 10.9572,46.916731 1.39455,13.347855 1.69338,24.105835 1.79299,48.510505 l 0,7.76965 c 0.0996,12.05292 0.29884,20.51984 0.79689,28.98677 0.19922,3.28716 0.29883,4.68171 0.79689,12.55097 1.09572,16.93386 1.49416,25.69961 1.59377,35.85993 0.19923,28.58832 -3.38677,50.60233 -12.8498,69.42879 l 0,0 z m 30.48093,-109.07393 0,0 c -0.0996,0 -0.19922,-0.0996 -0.29883,-0.0996 -1.793,-0.59767 -2.39066,-0.99611 -2.98833,-1.69339 l -1.59377,1.19533 c 0.8965,1.19533 1.79299,1.69339 3.78521,2.39067 -0.39844,3.58599 -2.09183,4.88093 -4.98054,4.5821 -2.58989,-0.19923 -5.97666,-1.793 -8.76576,-3.68561 -0.79689,-0.59766 -1.59378,-0.99611 -2.39066,-1.39455 -0.0996,0 -0.19922,-0.0996 -0.29884,-0.0996 -0.39844,-5.4786 -0.39844,-6.87315 -0.59766,-9.76187 -0.0996,-1.79299 -0.19922,-3.58599 -0.29883,-5.37899 5.57821,0.0996 11.05681,1.793 15.24046,4.88094 1.49417,1.09572 3.28716,3.18755 4.08405,4.98054 0.99611,1.69339 0.79689,3.18755 -0.8965,4.08405 l 0,0 z" />
      <g
         id="g26"
         transform="translate(48.475508,21.975564)">
        <ellipse
           style="fill:#0c99d5;fill-opacity:1"
           id="ellipse32"
           ry="10.459144"
           rx="9.6622572"
           cy="32.871593"
           cx="18.029572" />
        <ellipse
           style="fill:#ffffff"
           id="ellipse34"
           ry="2.6894941"
           rx="2.2910507"
           cy="35.262257"
           cx="22.412451" />
      </g>
      <g
         id="g36"
         transform="translate(129.61779,18.097523)">
        <ellipse
           style="fill:#0c99d5;fill-opacity:1"
           id="ellipse42"
           ry="10.459144"
           rx="9.4630346"
           cy="34.166538"
           cx="17.631128" />
        <ellipse
           style="fill:#ffffff"
           id="ellipse44"
           ry="2.6894941"
           rx="2.1914396"
           cy="36.557198"
           cx="22.014008" />
      </g>
    </g>
    <g
       transform="translate(99.536375,70.451072)"
       id="g46">
      <g
         transform="translate(11.953307,0)"
         id="g52"
         style="fill:#000000" />
    </g>
  </g>
</svg>
