<?xml version="1.0" encoding="UTF-8" standalone="no"?>
<!-- Created with Inkscape (http://www.inkscape.org/) -->

<svg
   xmlns:dc="http://purl.org/dc/elements/1.1/"
   xmlns:cc="http://creativecommons.org/ns#"
   xmlns:rdf="http://www.w3.org/1999/02/22-rdf-syntax-ns#"
   xmlns:svg="http://www.w3.org/2000/svg"
   xmlns="http://www.w3.org/2000/svg"
   xmlns:sodipodi="http://sodipodi.sourceforge.net/DTD/sodipodi-0.dtd"
   xmlns:inkscape="http://www.inkscape.org/namespaces/inkscape"
   id="svg2"
   version="1.1"
   inkscape:version="0.91 r13725"
   width="222"
   height="222"
   viewBox="0 0 222 222"
   sodipodi:docname="js.svg">
  <metadata
     id="metadata8">
    <rdf:RDF>
      <cc:Work
         rdf:about="">
        <dc:format>image/svg+xml</dc:format>
        <dc:type
           rdf:resource="http://purl.org/dc/dcmitype/StillImage" />
        <dc:title></dc:title>
      </cc:Work>
    </rdf:RDF>
  </metadata>
  <defs
     id="defs6" />
  <sodipodi:namedview
     pagecolor="#ffffff"
     bordercolor="#666666"
     borderopacity="1"
     objecttolerance="10"
     gridtolerance="10"
     guidetolerance="10"
     inkscape:pageopacity="0"
     inkscape:pageshadow="2"
     inkscape:window-width="1831"
     inkscape:window-height="1173"
     id="namedview4"
     showgrid="false"
     inkscape:zoom="1.4833529"
     inkscape:cx="123.78474"
     inkscape:cy="95.819717"
     inkscape:window-x="1680"
     inkscape:window-y="-9"
     inkscape:window-maximized="1"
     inkscape:current-layer="svg2" />
  <path
     style="fill:#0c99d5;fill-opacity:1"
     d="m 99.727449,218.88116 c -11.354951,-6.05053 -26.356146,-15.30441 -26.7561,-16.5052 -0.212288,-0.63736 0.883489,-1.46973 2.435061,-1.84973 1.551571,-0.37998 4.389375,-1.52246 6.30623,-2.53885 4.577883,-2.42734 5.597459,-2.32372 11.514809,1.17031 2.75,1.62379 5.9,3.38351 7.000001,3.91048 1.1,0.52697 3.77097,2.06008 5.93548,3.40691 l 3.93548,2.4488 3.56452,-1.95707 c 1.96049,-1.07639 4.91452,-2.82033 6.56452,-3.87543 1.65,-1.0551 3.94354,-2.33801 5.09676,-2.85092 1.89075,-0.84093 13.66408,-7.70105 17.40324,-10.14057 0.825,-0.53825 2.175,-1.29084 3,-1.67242 0.825,-0.38157 5.92417,-3.30597 11.33148,-6.49866 5.40732,-3.1927 9.97752,-5.8049 10.156,-5.8049 0.17849,0 4.07932,-2.20674 8.66852,-4.90386 4.5892,-2.69712 10.819,-6.26737 13.844,-7.9339 l 5.5,-3.03005 0.2593,-48.9059 0.25931,-48.905908 -7.75931,-4.455203 c -4.26761,-2.450362 -8.6593,-5.001606 -9.7593,-5.669431 -1.1,-0.667825 -2.675,-1.540436 -3.5,-1.939136 -0.825,-0.398698 -4.38146,-2.480317 -7.90324,-4.625819 -3.52178,-2.145502 -7.34678,-4.320564 -8.5,-4.833471 -1.15322,-0.512906 -3.44676,-1.82161 -5.09676,-2.908229 -1.65,-1.08662 -3.675,-2.295697 -4.5,-2.686838 -0.825,-0.391141 -5.92417,-3.323371 -11.33148,-6.516065 -5.40732,-3.192693 -10.00386,-5.804897 -10.21453,-5.804897 -0.21068,0 -3.7185,-2.026571 -7.79516,-4.503491 -4.07666,-2.47692 -8.13736,-4.503491 -9.02378,-4.503491 -1.30689,0 -17.508294,8.925629 -23.635051,13.020952 -0.825,0.551456 -2.175,1.314848 -3,1.696424 -0.825,0.381577 -5.924167,3.30598 -11.331482,6.498674 -5.407315,3.192693 -9.983148,5.804897 -10.168518,5.804897 -0.18537,0 -4.91037,2.702095 -10.5,6.004655 -5.58963,3.30256 -10.319045,6.004655 -10.509811,6.004655 -0.688663,0 -13.031932,7.406368 -14.740189,8.844599 -1.62209,1.365684 -1.75,4.998389 -1.75,49.700783 0,54.74788 -1.062337,48.63807 9.5,54.63718 3.3,1.8743 6.762304,3.85817 7.694008,4.4086 8.106775,4.78927 10.704452,5.77065 15.48767,5.85109 3.825657,0.0643 5.759066,-0.42796 7.388016,-1.88119 4.852091,-4.32871 4.930306,-5.22542 4.930306,-56.52421 l 0,-48.115113 6.75,0.295919 6.75,0.295919 0,50.539175 c 0,38.44066 -0.30931,51.56053 -1.29208,54.80562 -2.839687,9.37663 -11.586123,15.24869 -22.712914,15.24869 -6.942448,0 -13.395895,-2.2447 -24.006229,-8.35007 C 20.33172,174.22065 16.544112,171.67254 14.560529,168.88935 l -2.33308,-3.27359 0,-54.0419 0,-54.04189 2.295949,-3.221398 c 1.865913,-2.618022 13.288248,-10.306733 20.204051,-13.599943 0.825,-0.392854 2.85,-1.603331 4.5,-2.68995 1.65,-1.08662 3.943542,-2.395323 5.09676,-2.90823 1.890755,-0.840935 13.664083,-7.701053 17.40324,-10.140572 0.825,-0.53825 2.175,-1.290837 3,-1.672413 0.825,-0.381577 5.924167,-3.30598 11.331482,-6.498674 5.407315,-3.192693 10.028757,-5.804897 10.269872,-5.804897 0.241114,0 2.239148,-1.1376512 4.440075,-2.5281128 C 99.149329,3.1733321 106.5168,-0.01250406 110.35115,3.6044393e-5 113.9918,0.01194204 118.99777,2.1199004 129.22745,7.9486389 c 8.93121,5.0888871 21.09131,12.1603931 22.5,13.0845101 0.825,0.54121 2.175,1.296217 3,1.677793 0.825,0.381577 5.92417,3.30598 11.33148,6.498674 5.40732,3.192693 9.98315,5.804897 10.16852,5.804897 0.18537,0 4.91037,2.702095 10.5,6.004655 5.58963,3.30256 10.51294,6.004655 10.94069,6.004655 0.42775,0 2.78017,1.763986 5.2276,3.919968 3.54657,3.124244 4.69161,4.968093 5.64079,9.083332 1.58611,6.876735 1.67354,96.118007 0.10081,102.893727 -0.83045,3.57776 -2.19357,5.7096 -5.72262,8.94976 -2.54788,2.33931 -4.97706,4.2533 -5.39819,4.2533 -0.42113,0 -5.31282,2.70209 -10.87042,6.00465 -5.5576,3.30256 -10.25119,6.00466 -10.43021,6.00466 -0.17902,0 -4.89882,2.70209 -10.48845,6.00465 -5.58963,3.30256 -10.31463,6.00466 -10.5,6.00466 -0.18537,0 -4.7612,2.6122 -10.16852,5.8049 -5.40731,3.19269 -10.50648,6.11709 -11.33148,6.49866 -0.825,0.38158 -2.175,1.13843 -3,1.68187 -7.60747,5.01123 -12.79726,7.17813 -18.37811,7.67344 -5.59647,0.49668 -6.67976,0.24605 -12.621891,-2.92024 z m 28.500001,-61.17885 c -0.55,-0.20796 -4.375,-0.95043 -8.5,-1.64994 -11.86083,-2.01136 -20.517601,-7.24853 -24.399573,-14.76126 -2.194436,-4.24686 -3.636633,-13.44615 -2.351743,-15.00097 0.702855,-0.85051 2.978248,-1.19459 6.618125,-1.00077 l 5.547011,0.29536 1.74199,4.88493 c 3.84017,10.76876 8.57011,13.02985 27.3758,13.08665 15.78122,0.0476 20.76242,-1.30067 23.79679,-6.44143 2.38463,-4.04 2.16048,-9.49521 -0.49178,-11.96807 -2.58641,-2.41149 -10.89827,-4.97947 -19.83662,-6.12862 -22.54823,-2.89887 -30.49098,-5.07211 -36.2634,-9.92212 -4.618077,-3.88011 -6.736601,-8.68916 -6.736601,-15.292085 0,-12.10138 5.496841,-19.318915 18.500001,-24.291103 4.07432,-1.557952 7.5919,-1.90775 19,-1.889416 14.82623,0.02383 19.54806,1.051406 27.53955,5.993241 6.21847,3.845427 11.96045,13.669711 11.96045,20.463832 l 0,2.982076 -6.96146,0 -6.96145,0 -1.04749,-3.89311 C 155.37948,88.04966 150.6852,83.59222 144.8977,81.9085 c -2.60523,-0.757923 -8.87081,-1.322578 -14.17025,-1.277024 -11.90552,0.10234 -17.78994,2.350438 -20.36449,7.7801 -3.71734,7.8398 0.40914,11.288495 16.86449,14.094454 30.27126,5.16185 37.0856,7.08993 41.46711,11.73294 4.1009,4.34565 6.03289,9.42125 6.03289,15.84925 0,13.13586 -8.91305,22.48363 -24.65201,25.85437 -5.5767,1.19434 -20.22329,2.37403 -21.84799,1.75972 z"
     id="path4138"
     inkscape:connector-curvature="0" />
</svg>
