<?xml version="1.0" encoding="UTF-8" standalone="no"?>
<!-- Created with Inkscape (http://www.inkscape.org/) -->

<svg
   xmlns:dc="http://purl.org/dc/elements/1.1/"
   xmlns:cc="http://creativecommons.org/ns#"
   xmlns:rdf="http://www.w3.org/1999/02/22-rdf-syntax-ns#"
   xmlns:svg="http://www.w3.org/2000/svg"
   xmlns="http://www.w3.org/2000/svg"
   xmlns:sodipodi="http://sodipodi.sourceforge.net/DTD/sodipodi-0.dtd"
   xmlns:inkscape="http://www.inkscape.org/namespaces/inkscape"
   id="svg2"
   version="1.1"
   inkscape:version="0.91 r13725"
   width="281.25"
   height="258.75"
   viewBox="0 0 281.25 258.75"
   sodipodi:docname="PHP.svg">
  <metadata
     id="metadata8">
    <rdf:RDF>
      <cc:Work
         rdf:about="">
        <dc:format>image/svg+xml</dc:format>
        <dc:type
           rdf:resource="http://purl.org/dc/dcmitype/StillImage" />
        <dc:title />
      </cc:Work>
    </rdf:RDF>
  </metadata>
  <defs
     id="defs6" />
  <sodipodi:namedview
     pagecolor="#ffffff"
     bordercolor="#666666"
     borderopacity="1"
     objecttolerance="10"
     gridtolerance="10"
     guidetolerance="10"
     inkscape:pageopacity="0"
     inkscape:pageshadow="2"
     inkscape:window-width="1831"
     inkscape:window-height="1173"
     id="namedview4"
     showgrid="false"
     inkscape:zoom="1.8241546"
     inkscape:cx="41.607588"
     inkscape:cy="113.58309"
     inkscape:window-x="1680"
     inkscape:window-y="-9"
     inkscape:window-maximized="1"
     inkscape:current-layer="svg2" />
  <path
     style="fill:#0c99d5;fill-opacity:1"
     d="M 100,256.754 C 85.793454,254.19517 69.132594,246.32857 60.830194,238.25956 54.17861,231.79496 48.735316,222.22906 44.393984,209.375 c -5.266075,-15.59209 -5.77341,-44.66184 -1.146658,-65.70223 0.621479,-2.8262 0.06851,-3.48011 -4.70908,-5.56868 C 26.182105,132.70246 9.8182408,118.97821 3.2490181,108.50727 L 0.65653158,104.375 3.7657658,106.50728 C 18.670156,116.72854 33.56077,123.2532 45.103282,124.62024 l 5.82071,0.68937 6.458694,-12.3423 C 63.794657,100.71429 70.910809,89.898097 91.17484,61.604951 112.46501,31.879085 130.37506,13.669441 146.21766,5.6413837 156.6576,0.35107181 163.66565,-0.19553653 215.625,0.22780595 c 46.55428,0.37930422 48.9752,0.51450879 53.75,3.00184315 3.1877,1.6605708 6.13269,4.6055498 8.125,8.1249999 l 3.125,5.520351 0.37662,107.5 c 0.27359,78.09217 -0.0154,108.8678 -1.05633,112.5 -1.75888,6.13724 -5.32405,10.1599 -10.4416,11.78145 -4.51502,1.43064 -32.29213,5.09355 -38.62612,5.09355 -5.2209,0 -12.07928,-2.70647 -14.78453,-5.83431 -1.08965,-1.25988 -6.62592,-14.38444 -12.3028,-29.16569 -5.67689,-14.78125 -11.12937,-28.44675 -12.11662,-30.36778 -2.23118,-4.34155 -8.64973,-8.37136 -13.34346,-8.37755 -4.21412,-0.005 -16.38509,-2.91638 -30.20516,-7.22391 -15.67737,-4.88642 -15.14125,-4.06486 -8.6822,-13.30461 6.38506,-9.13391 9.7738,-16.4599 8.5384,-18.45881 -1.28115,-2.07295 -23.3931,-0.35788 -32.66637,2.5337 -18.942663,5.90667 -30.065314,18.18815 -34.744486,38.36435 -4.741982,20.44701 6.376096,42.38619 24.679396,48.69956 4.47493,1.54354 11.61824,2.46551 22.00886,2.84064 16.18723,0.58441 22.66856,-0.39584 32.1806,-4.86703 l 5.4656,-2.56912 5.02091,3.55277 c 2.7615,1.95404 5.028,3.83404 5.03666,4.17779 0.0215,0.85203 -13.09791,9.12401 -19.71221,12.42886 -11.63122,5.81158 -27.18841,9.92618 -39.85858,10.5419 -6.74662,0.32785 -13.67283,0.34282 -15.39158,0.0332 z m 106.25,-103.48989 0,-7.98589 4.33907,-0.81401 c 2.38649,-0.44771 5.19899,-2.04172 6.25,-3.54225 3.43499,-4.90414 2.01097,-17.06097 -2.33869,-19.96532 -0.75647,-0.5051 -5.45351,-0.92697 -10.43788,-0.9375 L 195,120 l 0,20.625 0,20.625 5.625,0 5.625,0 0,-7.98589 z m 0,-21.46289 c 0,-2.64753 0.5061,-4.13597 1.25,-3.67622 0.6875,0.4249 1.25,2.42685 1.25,4.44877 0,2.02193 -0.5625,3.67623 -1.25,3.67623 -0.6875,0 -1.25,-2.00195 -1.25,-4.44878 z m 26.19042,20.07378 0.56544,-8.75 0.68456,8.75 0.68458,8.75 5.625,0 5.625,0 0.34346,-20.3125 0.34346,-20.3125 -6.28096,0 -6.28096,0 -0.23635,7.1875 -0.23636,7.1875 -0.45103,-7.1875 -0.45102,-7.1875 -6.18761,0 -6.18763,0 0,19.79166 c 0,10.88543 0.40146,20.19314 0.89215,20.68383 0.49069,0.49067 3.16256,0.72505 5.9375,0.52082 l 5.04535,-0.37131 0.56542,-8.75 z M 260,153.26411 l 0,-7.98589 4.33481,-0.81321 C 270.92692,143.22832 272.5,140.90599 272.5,132.41071 272.5,121.8211 270.39067,120 258.125,120 l -9.375,0 0,20.625 0,20.625 5.625,0 5.625,0 0,-7.98589 z m 0,-21.38911 c 0,-2.40625 0.5625,-4.375 1.25,-4.375 0.6875,0 1.25,1.96875 1.25,4.375 0,2.40625 -0.5625,4.375 -1.25,4.375 -0.6875,0 -1.25,-1.96875 -1.25,-4.375 z M 170.51389,82.404094 c 3.69066,-4.386104 4.01755,-7.267108 1.39909,-12.330648 -3.62362,-7.007308 -15.61521,-7.169647 -19.31237,-0.261446 -6.33393,11.835083 9.30183,22.826211 17.91328,12.592094 z"
     id="path4138"
     inkscape:connector-curvature="0" />
</svg>
