<?xml version="1.0" encoding="UTF-8" standalone="no"?>
<!-- Created with Inkscape (http://www.inkscape.org/) -->

<svg
   xmlns:dc="http://purl.org/dc/elements/1.1/"
   xmlns:cc="http://creativecommons.org/ns#"
   xmlns:rdf="http://www.w3.org/1999/02/22-rdf-syntax-ns#"
   xmlns:svg="http://www.w3.org/2000/svg"
   xmlns="http://www.w3.org/2000/svg"
   xmlns:sodipodi="http://sodipodi.sourceforge.net/DTD/sodipodi-0.dtd"
   xmlns:inkscape="http://www.inkscape.org/namespaces/inkscape"
   id="svg2"
   version="1.1"
   inkscape:version="0.91 r13725"
   width="193.257"
   height="193.257"
   viewBox="0 0 193.257 193.257"
   sodipodi:docname="Ruby.svg">
  <metadata
     id="metadata8">
    <rdf:RDF>
      <cc:Work
         rdf:about="">
        <dc:format>image/svg+xml</dc:format>
        <dc:type
           rdf:resource="http://purl.org/dc/dcmitype/StillImage" />
        <dc:title></dc:title>
      </cc:Work>
    </rdf:RDF>
  </metadata>
  <defs
     id="defs6" />
  <sodipodi:namedview
     pagecolor="#ffffff"
     bordercolor="#666666"
     borderopacity="1"
     objecttolerance="10"
     gridtolerance="10"
     guidetolerance="10"
     inkscape:pageopacity="0"
     inkscape:pageshadow="2"
     inkscape:window-width="1831"
     inkscape:window-height="1173"
     id="namedview4"
     showgrid="false"
     inkscape:zoom="3.0715807"
     inkscape:cx="98.977017"
     inkscape:cy="100.61951"
     inkscape:window-x="1680"
     inkscape:window-y="-9"
     inkscape:window-maximized="1"
     inkscape:current-layer="svg2" />
  <g
     id="g4182"
     transform="translate(-8.3674003,0.5528299)">
    <path
       inkscape:connector-curvature="0"
       id="path4166"
       d="m 80.367547,66.032519 c -7.816623,-0.09407 -10.694012,-0.309132 -11.819739,-0.883436 -0.495273,-0.252669 -0.572816,-0.395021 -0.428339,-0.786332 0.20124,-0.545053 1.199,-1.374233 3.50664,-2.914164 2.262071,-1.509523 5.089335,-3.574715 13.72854,-10.028098 9.251441,-6.910716 10.046276,-7.492664 12.668609,-9.275475 3.458522,-2.351297 5.989482,-3.752957 6.977852,-3.86436 0.48124,-0.05424 0.54599,-0.02085 2.16412,1.11603 0.91741,0.64457 2.98317,2.080347 4.59057,3.190615 3.2588,2.250934 8.10335,5.754504 13.66377,9.881628 8.42966,6.256755 12.34127,9.138646 14.54043,10.712687 1.74061,1.245839 2.29596,1.698759 2.20998,1.802356 -0.65881,0.793824 -8.87868,1.028998 -38.04365,1.088443 -9.615585,0.0196 -20.307036,0.0016 -23.758783,-0.03989 z"
       style="fill:#0c99d5;fill-opacity:1;stroke:none;stroke-width:5;stroke-linejoin:round;stroke-miterlimit:4;stroke-dasharray:none;stroke-opacity:1" />
    <path
       inkscape:connector-curvature="0"
       id="path4168"
       d="m 149.06628,64.537537 c -0.18491,-0.144253 -2.12652,-1.61977 -4.31468,-3.278926 -2.18816,-1.659156 -6.39918,-4.857478 -9.35782,-7.107383 -9.9042,-7.531673 -16.41937,-12.384137 -22.46998,-16.735518 -1.69505,-1.219023 -3.12983,-2.26114 -3.18838,-2.315816 -0.062,-0.05785 12.03864,-0.09941 28.94545,-0.09941 l 29.05191,0 -0.4162,0.644401 c -2.01983,3.127246 -3.86315,6.160693 -11.73043,19.304009 -4.3751,7.309178 -5.9007,9.777063 -6.07159,9.821668 -0.0616,0.01609 -0.26336,-0.08877 -0.44828,-0.233025 z"
       style="fill:#0c99d5;fill-opacity:1;stroke:none;stroke-width:5;stroke-linejoin:round;stroke-miterlimit:4;stroke-dasharray:none;stroke-opacity:1" />
    <path
       inkscape:connector-curvature="0"
       id="path4170"
       d="m 165.03622,66.034358 c -4.79564,-0.139243 -8.81925,-0.397403 -9.72091,-0.623705 -0.34017,-0.08538 -0.31261,-0.169323 0.69355,-2.112565 2.95913,-5.715046 14.38921,-23.887671 15.85648,-25.210127 0.23351,-0.210465 0.25599,-0.21132 0.60561,-0.02304 0.56494,0.304243 2.70548,2.122159 5.28518,4.488606 4.26234,3.909985 11.99633,11.540795 22.07642,21.781915 l 1.79181,1.820425 -16.80915,-0.01764 c -9.24503,-0.0097 -18.14557,-0.05644 -19.77899,-0.103869 z"
       style="fill:#0c99d5;fill-opacity:1;stroke:none;stroke-width:5;stroke-linejoin:round;stroke-miterlimit:4;stroke-dasharray:none;stroke-opacity:1" />
    <path
       inkscape:connector-curvature="0"
       id="path4172"
       d="m 104.55704,168.47105 c -0.70389,-0.99449 -3.05365,-5.78582 -4.39777,-8.96735 -0.641905,-1.51938 -2.47977,-5.92214 -4.084148,-9.7839 -1.604378,-3.86176 -4.320536,-10.18101 -6.035907,-14.04277 -1.715373,-3.86177 -3.401597,-7.79835 -3.747167,-8.74796 -0.84276,-2.31588 -4.352445,-10.68554 -14.63615,-34.903298 -4.737545,-11.15675 -8.613718,-20.395554 -8.613718,-20.530677 0,-0.662544 3.273369,-0.948567 13.69746,-1.19687 10.591546,-0.252292 70.32898,-0.311717 70.32898,-0.06996 0,0.08851 -1.59714,3.895594 -3.5492,8.460195 -1.95207,4.564602 -6.44672,15.188293 -9.98813,23.6082 -3.54141,8.41991 -9.88096,23.49287 -14.08789,33.49547 -7.84178,18.64499 -11.32198,26.75518 -13.28713,30.96409 l -1.11807,2.39464 -0.48116,-0.67981 z"
       style="fill:#0c99d5;fill-opacity:1;stroke:none;stroke-width:5;stroke-linejoin:round;stroke-miterlimit:4;stroke-dasharray:none;stroke-opacity:1" />
    <path
       inkscape:connector-curvature="0"
       id="path4174"
       d="m 113.00849,163.3586 c -0.0254,-0.67515 2.21982,-6.21942 7.28971,-18.00103 2.97223,-6.90699 10.308,-24.16072 16.30171,-38.34162 10.19674,-24.125087 11.9068,-28.127515 14.72916,-34.473856 l 1.10057,-2.474751 24.40477,0 24.40478,0 -0.43855,0.507197 c -2.25611,2.609286 -62.74448,66.8833 -76.52065,81.30967 -10.81576,11.32624 -11.26007,11.77854 -11.2715,11.47439 z"
       style="fill:#0c99d5;fill-opacity:1;stroke:none;stroke-width:5;stroke-linejoin:round;stroke-miterlimit:4;stroke-dasharray:none;stroke-opacity:1" />
    <path
       inkscape:connector-curvature="0"
       id="path4176"
       d="M 89.137932,155.30238 C 77.205395,142.98507 71.943225,137.43446 41.28739,104.82896 30.156762,92.990445 18.416829,80.528566 15.198651,77.135899 11.980472,73.743232 9.3999882,70.914843 9.4642421,70.850589 9.6266495,70.688182 33.034335,70.312288 43.359275,70.306284 c 8.924565,-0.0052 11.97522,0.189976 13.390174,0.85664 0.753008,0.354784 1.001934,0.718902 2.168981,3.172693 1.4241,2.994267 9.588806,21.963829 15.056819,34.982433 1.861312,4.43153 5.850166,13.8586 8.864123,20.94905 10.433996,24.54639 13.208247,31.42359 12.676212,31.42359 -0.103896,0 -2.97384,-2.87474 -6.377652,-6.38831 z"
       style="fill:#0c99d5;fill-opacity:1;stroke:none;stroke-width:5;stroke-linejoin:round;stroke-miterlimit:4;stroke-dasharray:none;stroke-opacity:1" />
    <path
       inkscape:connector-curvature="0"
       id="path4178"
       d="M 20.568543,54.02189 C 27.279148,47.335052 33.84699,40.890358 35.163749,39.700348 l 2.394104,-2.163654 0.629975,0.771876 c 2.108177,2.583046 16.566813,26.225688 16.566813,27.089917 0,0.134477 -0.388478,0.309367 -0.863285,0.388644 -0.474807,0.07927 -10.911926,0.200052 -23.193599,0.268392 L 8.3674444,66.179778 20.568543,54.02189 Z"
       style="fill:#0c99d5;fill-opacity:1;stroke:none;stroke-width:5;stroke-linejoin:round;stroke-miterlimit:4;stroke-dasharray:none;stroke-opacity:1" />
    <path
       inkscape:connector-curvature="0"
       id="path4180"
       d="M 59.305006,63.218613 C 58.466611,62.268223 50.586786,49.461879 45.803457,41.275806 43.559451,37.435469 42.871371,36.080723 43.0999,35.952832 c 0.865191,-0.484185 10.788789,-0.728636 29.150656,-0.718077 21.187545,0.01218 25.303139,0.189365 25.033573,1.07772 -0.08078,0.26623 -3.664685,2.983636 -17.321557,13.133654 -10.182814,7.56804 -16.049599,11.77155 -18.286525,13.10217 -0.992278,0.59025 -1.851731,1.073181 -1.909895,1.073181 -0.05816,0 -0.265681,-0.18129 -0.461146,-0.402867 z"
       style="fill:#0c99d5;fill-opacity:1;stroke:none;stroke-width:5;stroke-linejoin:round;stroke-miterlimit:4;stroke-dasharray:none;stroke-opacity:1" />
  </g>
</svg>
