<?xml version="1.0" encoding="UTF-8" standalone="no"?>
<!-- Created with Inkscape (http://www.inkscape.org/) -->

<svg
   xmlns:dc="http://purl.org/dc/elements/1.1/"
   xmlns:cc="http://creativecommons.org/ns#"
   xmlns:rdf="http://www.w3.org/1999/02/22-rdf-syntax-ns#"
   xmlns:svg="http://www.w3.org/2000/svg"
   xmlns="http://www.w3.org/2000/svg"
   xmlns:sodipodi="http://sodipodi.sourceforge.net/DTD/sodipodi-0.dtd"
   xmlns:inkscape="http://www.inkscape.org/namespaces/inkscape"
   id="svg2"
   version="1.1"
   inkscape:version="0.91 r13725"
   width="255"
   height="250"
   viewBox="0 0 255 250"
   sodipodi:docname="Ruby on Rails.svg">
  <metadata
     id="metadata8">
    <rdf:RDF>
      <cc:Work
         rdf:about="">
        <dc:format>image/svg+xml</dc:format>
        <dc:type
           rdf:resource="http://purl.org/dc/dcmitype/StillImage" />
        <dc:title />
      </cc:Work>
    </rdf:RDF>
  </metadata>
  <defs
     id="defs6" />
  <sodipodi:namedview
     pagecolor="#ffffff"
     bordercolor="#666666"
     borderopacity="1"
     objecttolerance="10"
     gridtolerance="10"
     guidetolerance="10"
     inkscape:pageopacity="0"
     inkscape:pageshadow="2"
     inkscape:window-width="1600"
     inkscape:window-height="1173"
     id="namedview4"
     showgrid="false"
     inkscape:zoom="2.6700352"
     inkscape:cx="20.270269"
     inkscape:cy="98.919335"
     inkscape:window-x="-9"
     inkscape:window-y="-9"
     inkscape:window-maximized="1"
     inkscape:current-layer="svg2" />
  <path
     style="fill:#0c99d5;fill-opacity:1"
     d="M 27.5229,235.3125 C 27.57459,202.16017 37.286927,160.22302 53.07047,125 c 25.569907,-57.062561 47.90738,-84.60654 81.0879,-99.988195 15.81343,-7.330706 25.15659,-9.318754 43.96663,-9.355264 18.31632,-0.03555 27.51791,2.121109 43.69616,10.241466 9.99391,5.01625 25.12738,15.148299 29.36804,19.662268 l 2.84552,3.028934 -2.6937,3.782953 -2.69369,3.782954 -5.51018,-4.206012 c -7.90319,-6.032638 -16.83781,-8.729305 -28.76215,-8.681047 -19.00421,0.07691 -36.91965,8.946833 -55,27.230462 -12.95491,13.100561 -19.6734,24.529767 -25.05735,42.626481 -4.52063,15.19485 -5.62044,43.0594 -2.5409,64.375 3.2403,22.42826 11.29875,52.54238 18.81542,70.3125 C 151.46624,249.87887 148.08384,250 89.508736,250 L 27.5,250 27.5229,235.3125 Z m 122.38509,-8.68654 c -2.70594,-0.42011 -3.47892,-1.53222 -4.86555,-7.00021 -0.9067,-3.57541 -1.90985,-7.20388 -2.22923,-8.06325 -0.4345,-1.16914 1.96655,-1.5625 9.53734,-1.5625 l 10.11803,0 4.40642,8.75 4.40642,8.75 -9.07821,-0.18729 c -4.99301,-0.103 -10.52587,-0.41205 -12.29522,-0.68675 z M 7.8891967,211.35904 c -3.5671917,-0.43394 -6.7171998,-1.05787 -7.000018,-1.38651 -0.28281817,-0.32864 0.036275,-5.55597 0.7090958,-11.61629 l 1.2233108,-11.01876 11.4017067,0.86466 c 6.270939,0.47556 11.621809,1.06035 11.890823,1.29954 0.537338,0.47776 -2.239866,18.72007 -3.251142,21.35541 -0.661269,1.72324 -4.010967,1.83552 -14.9737763,0.50195 z M 145,172.51804 l -8.125,-3.55088 -0.37244,-8.35772 c -0.20485,-4.59675 0.0764,-8.1572 0.625,-7.91212 0.54859,0.2451 4.43665,2.23924 8.64015,4.43144 6.35139,3.31236 7.77699,4.65725 8.4375,7.95978 1.07761,5.38809 1.00294,11.18156 -0.14271,11.07091 -0.51563,-0.0497 -4.59375,-1.68844 -9.0625,-3.64141 z m -115.849694,-40.405 c -4.248581,-1.50593 -8.125737,-3.14644 -8.615902,-3.6456 -0.911408,-0.92815 3.9072,-15.69649 5.775764,-17.7019 0.590631,-0.63389 5.304858,0.61222 10.997768,2.90704 l 9.964015,4.0165 -2.807815,8.34296 c -3.283598,9.75667 -4.066622,10.06761 -15.31383,6.081 z m 115.393944,-3.87986 -7.33074,-6.51374 3.00888,-5.92051 3.00888,-5.9205 6.19687,4.64696 c 3.40827,2.55583 6.3876,4.78954 6.62071,4.9638 0.62315,0.46583 -2.59587,14.29809 -3.44802,14.81632 -0.3992,0.24278 -4.02467,-2.48977 -8.05658,-6.07233 z m 13.77649,-41.417691 c -6.59368,-7.518001 -6.57344,-8.079125 0.47221,-13.096069 l 3.38997,-2.41388 4.37814,6.59394 4.37813,6.59394 -2.37447,4.62829 c -1.30595,2.54556 -2.78288,4.621193 -3.28208,4.612516 -0.4992,-0.0086 -3.63205,-3.122107 -6.9619,-6.918737 z M 62.827627,67.336956 55.030256,62.196559 58.640732,57.66078 c 1.985763,-2.494679 4.93208,-5.741241 6.547373,-7.214584 l 2.936895,-2.678802 7.841534,5.312435 7.841533,5.312435 -5.807131,7.053869 c -3.193922,3.879627 -6.160112,7.048772 -6.591534,7.042543 -0.431421,-0.0062 -4.29322,-2.324501 -8.581775,-5.15172 z m 121.220213,-5.395038 -2.64041,-5.434771 5.61041,-1.412716 c 3.08571,-0.776995 6.14405,-1.082906 6.79628,-0.679802 2.15068,1.329193 1.23537,6.355033 -1.62662,8.931521 -4.78913,4.311375 -5.41529,4.20335 -8.13966,-1.404232 z m 41.88966,-4.102503 c -4.05095,-0.423744 -4.6875,-0.919366 -4.6875,-3.649744 0,-3.021518 0.23187,-3.121047 5.3125,-2.280352 2.92187,0.483485 5.73437,1.128625 6.25,1.433644 1.5791,0.934122 1.03952,5.420758 -0.625,5.196908 -0.85938,-0.115575 -3.67188,-0.430776 -6.25,-0.700456 z M 111.09127,23.395771 c -6.85407,-8.26994 -6.88611,-7.958551 1.24101,-12.061107 l 7.42779,-3.7495351 5.11996,5.5545061 C 127.69601,16.194614 130,19.139371 130,19.68354 c 0,0.54417 -3.27157,2.78796 -7.27018,4.9862 l -7.27018,3.996801 -4.36837,-5.27077 z M 229.0625,25.941732 C 224.42655,23.599309 223.75,22.731674 223.75,19.128734 223.75,16.85793 223.92966,15 224.14924,15 c 1.43936,0 13.97576,10.414381 13.97576,11.6101 0,2.434084 -3.42181,2.181722 -9.0625,-0.668368 z M 161.92352,12.329317 c -0.33377,-0.937374 -1.1287,-4.1133552 -1.76651,-7.0577354 l -1.15966,-5.35341843 9.56382,0.84891814 c 5.2601,0.46690499 9.97709,1.46969329 10.48219,2.22841839 0.5051,0.7587252 0.92698,3.2076253 0.9375,5.4420003 0.0189,4.013468 -0.0525,4.062706 -5.91836,4.079569 -3.26563,0.0094 -7.19629,0.354455 -8.73481,0.766816 -1.7842,0.47821 -3.0171,0.132491 -3.40417,-0.954568 z"
     id="path4138"
     inkscape:connector-curvature="0" />
</svg>
