<?xml version="1.0" encoding="UTF-8" standalone="no"?>
<!-- Created with Inkscape (http://www.inkscape.org/) -->

<svg
   xmlns:dc="http://purl.org/dc/elements/1.1/"
   xmlns:cc="http://creativecommons.org/ns#"
   xmlns:rdf="http://www.w3.org/1999/02/22-rdf-syntax-ns#"
   xmlns:svg="http://www.w3.org/2000/svg"
   xmlns="http://www.w3.org/2000/svg"
   xmlns:sodipodi="http://sodipodi.sourceforge.net/DTD/sodipodi-0.dtd"
   xmlns:inkscape="http://www.inkscape.org/namespaces/inkscape"
   id="svg2"
   version="1.1"
   inkscape:version="0.91 r13725"
   width="409"
   height="409"
   viewBox="0 0 409 409"
   sodipodi:docname="Slim Framework.svg">
  <metadata
     id="metadata8">
    <rdf:RDF>
      <cc:Work
         rdf:about="">
        <dc:format>image/svg+xml</dc:format>
        <dc:type
           rdf:resource="http://purl.org/dc/dcmitype/StillImage" />
        <dc:title />
      </cc:Work>
    </rdf:RDF>
  </metadata>
  <defs
     id="defs6" />
  <sodipodi:namedview
     pagecolor="#ffffff"
     bordercolor="#666666"
     borderopacity="1"
     objecttolerance="10"
     gridtolerance="10"
     guidetolerance="10"
     inkscape:pageopacity="0"
     inkscape:pageshadow="2"
     inkscape:window-width="1831"
     inkscape:window-height="1173"
     id="namedview4"
     showgrid="false"
     inkscape:zoom="1.4023692"
     inkscape:cx="167.01705"
     inkscape:cy="115.12199"
     inkscape:window-x="1680"
     inkscape:window-y="-9"
     inkscape:window-maximized="1"
     inkscape:current-layer="svg2" />
  <path
     style="fill:#0c99d5;fill-opacity:1;stroke:none;stroke-opacity:1"
     d="m 140.64041,405.45617 c -10.29253,-4.30898 -15.84399,-9.77031 -20.08826,-19.76214 l -2.3042,-5.42453 -0.27435,-115.31407 -0.27436,-115.31407 -2.72564,0.31407 -2.72565,0.31407 -0.5,35.55469 -0.5,35.55468 -3.83747,7.76178 c -3.22036,6.51359 -4.80743,8.47581 -9.86909,12.202 -9.212535,6.78188 -13.479529,7.64766 -35.566327,7.21649 -16.735296,-0.3267 -19.240596,-0.60062 -23.55493,-2.57543 -7.10683,-3.25303 -15.831781,-12.43687 -18.736141,-19.72158 -2.273437,-5.70224 -2.39035,-7.10919 -2.412627,-29.03412 -0.02597,-25.55461 0.179119,-26.47714 6.780922,-30.50251 4.6434,-2.83126 21.747932,-2.83126 26.391332,0 6.162864,3.75773 6.769346,5.7548 7.135639,23.49674 0.302381,14.64628 0.514032,16.24369 2.424314,18.29726 2.395764,2.57546 5.491712,2.88575 8.303251,0.83219 1.844283,-1.34708 1.966076,-3.25545 2.44113,-38.25 l 0.5,-36.83219 3.285897,-6.93898 c 3.871596,-8.17584 8.875505,-13.26913 16.89161,-17.19333 5.05731,-2.47576 7.223981,-2.8985 16.4868,-3.21671 l 10.66431,-0.36636 0.66056,-6.14231 c 0.3633,-3.378269 1.93996,-11.129818 3.50369,-17.225664 9.87399,-38.491568 39.44946,-68.00779 78.79118,-78.6333366 11.09618,-2.9968949 12.66814,-3.1650849 29.71595,-3.1794165 18.23981,-0.015334 18.80551,0.060198 36.22135,4.8362924 8.53309,2.3401009 21.91828,9.6059557 30.83458,16.7378737 l 8.34889,6.678058 27.29759,0.388025 c 31.11817,0.442334 32.44085,0.722951 42.91578,9.104956 4.46643,3.574017 6.54166,6.219375 9.31543,11.874663 1.96284,4.001933 4.01826,9.700161 4.56759,12.662731 1.28156,6.911455 1.31961,112.584008 0.0433,120.376268 -2.22013,13.55508 -11.47623,25.88876 -23.54456,31.37296 -5.09698,2.31622 -7.69316,2.79081 -17.25,3.15335 l -11.25,0.42678 0,3.28079 c 0,2.91569 0.36493,3.34924 3.27939,3.896 5.21138,0.97766 14.91821,7.33299 18.58772,12.16988 4.84808,6.39042 6.34083,11.52675 6.89981,23.74122 0.46938,10.25679 0.63968,10.94901 3.36375,13.67308 3.72341,3.72342 3.66061,6.23513 -0.46414,18.56148 -2.94925,8.81354 -3.62185,9.99634 -5.83559,10.26226 -3.36156,0.40379 -4.36613,-1.05029 -7.85378,-11.36813 -3.99894,-11.83042 -3.91924,-14.59548 0.52281,-18.1398 l 3.49997,-2.79263 3e-5,-9.07186 c 5e-5,-15.28484 -4.03334,-22.78987 -15.26437,-28.40279 l -6.2356,-3.11636 -0.5251,73.79551 c -0.35238,49.52184 -0.88415,74.79166 -1.61666,76.82397 -3.83999,10.65382 -9.77853,17.56727 -18.96424,22.07753 -5.87292,2.88365 -5.96195,2.894 -24.894,2.894 l -19,0 -5.83082,-2.95184 c -7.23132,-3.66086 -12.90769,-9.37012 -16.45279,-16.54816 -2.64177,-5.34902 -2.72613,-6.06274 -3.07313,-25.99916 -0.3983,-22.88388 -0.90659,-24.95186 -7.57117,-30.80344 -8.96278,-7.86943 -23.25831,-6.02503 -30.13345,3.88779 l -2.93859,4.23697 -0.57513,20.58892 c -0.50329,18.01686 -0.85099,21.29438 -2.78335,26.23601 -2.9497,7.54331 -9.06027,14.25557 -16.52166,18.14852 l -6.11986,3.193 -18,0.27283 c -16.96163,0.2571 -18.32348,0.13741 -23.60754,-2.07477 z m 42.72401,-8.40567 c 6.34605,-3.36907 10.01104,-6.88774 12.55562,-12.05434 2.14224,-4.34967 2.36883,-6.36168 2.84099,-25.22666 0.474,-18.9389 0.69275,-20.86697 2.87259,-25.31897 3.36278,-6.86799 6.63584,-10.39296 12.49459,-13.45624 4.3739,-2.28692 6.36745,-2.68038 13.68457,-2.70084 7.57216,-0.0212 9.24493,0.32375 14.43288,2.97605 3.97189,2.0306 6.92916,4.47779 9.15186,7.57332 5.10049,7.10339 6.35043,13.73036 6.35043,33.6689 0,12.43466 0.38793,18.25045 1.3749,20.61263 2.096,5.01642 7.38598,10.47859 13.03508,13.45937 4.90922,2.59038 5.65834,2.68578 21.09002,2.68578 14.69624,0 16.38219,-0.18826 20.69031,-2.31031 6.09189,-3.00069 10.47953,-7.47574 13.42229,-13.68969 l 2.36786,-5 0.01,-79.75 0.01,-79.75 -11.34004,0 c -29.13962,0 -51.30938,-12.98218 -63.56526,-37.22258 -3.08814,-6.1079 -4.56536,-10.63633 -5.63606,-17.27742 -2.26639,-14.0573 -2.27884,-14 3.04136,-14 l 4.5,0 0,4.61351 c 0,13.88568 5.71992,26.61674 17.07647,38.00778 8.6297,8.65591 15.99592,12.72891 28.94135,16.00254 7.2011,1.821 10.52944,1.99933 31.76309,1.70178 23.57858,-0.3304 23.75252,-0.34877 29.36195,-3.10093 6.25836,-3.07054 12.50071,-9.25028 16.0361,-15.87527 l 2.32058,-4.34941 0,-63 0,-62.999998 -2.34279,-4.392036 c -3.54141,-6.639114 -10.60159,-13.610502 -16.44345,-16.236643 -4.88456,-2.195804 -6.65276,-2.365642 -28.0045,-2.689869 -26.58144,-0.403641 -34.78171,0.739069 -46.70926,6.508947 -5.56188,2.690526 -9.448,5.58965 -15.03826,11.218839 -11.41748,11.497009 -16.96174,24.074015 -16.96174,38.477252 l 0,5.11351 -4.5,0 c -4.47645,0 -4.49999,-0.01832 -4.49863,-3.5 0.005,-13.755071 6.5533,-31.411694 15.56356,-41.967495 7.60563,-8.910223 18.93272,-17.061463 27.75483,-19.97302 2.02413,-0.668024 3.68024,-1.591878 3.68024,-2.053008 0,-3.378429 -21.52779,-15.202529 -33.70421,-18.511975 -20.23895,-5.5007721 -36.81647,-5.6459522 -56.78493,-0.497303 -29.32692,7.561629 -52.58679,26.478106 -66.53708,54.112406 -6.07981,12.043563 -10.9389,31.484671 -10.96992,43.890393 l -0.0113,4.5 -13.2463,4.8e-4 c -11.88297,4.3e-4 -13.737624,0.24237 -18.020106,2.35073 -5.755214,2.83342 -10.040993,6.95439 -13.014815,12.51434 -2.140626,4.00225 -2.227324,5.33925 -2.711336,41.81315 -0.4793,36.11877 -0.585745,37.79551 -2.571085,40.5 -4.670071,6.36172 -15.132361,8.32879 -21.531032,4.04816 -5.30226,-3.54715 -6.801396,-9.32578 -6.854113,-26.42016 -0.05267,-17.07816 -0.205103,-17.3067 -11.54377,-17.3067 -11.894671,0 -11.5,-0.85319 -11.5,24.86036 0,21.34417 0.04755,21.84237 2.567249,26.89875 2.829322,5.67771 7.265492,10.04082 13.710555,13.48475 3.932951,2.10158 5.4553,2.25614 22.222196,2.25614 14.605046,0 18.686453,-0.31174 21.639564,-1.65283 5.579921,-2.534 11.921461,-8.80542 14.507583,-14.34717 2.299,-4.92648 2.33346,-5.49675 2.34308,-38.78212 0.0126,-43.56704 -0.0743,-43.31717 15.2621,-43.89062 l 8.75234,-0.32726 -0.002,118.59028 -0.002,118.59028 3.03028,6.06413 c 3.31247,6.62882 7.58811,10.48861 14.83914,13.39586 3.92108,1.57213 6.92887,1.81594 19.63058,1.59123 13.19403,-0.23342 15.49561,-0.52849 19.11647,-2.45078 z M 172.60401,108.2531 c -5.4379,-2.95416 -6.4942,-12.619782 -1.93628,-17.717821 2.66793,-2.98408 3.41246,-3.260999 8.63153,-3.210381 5.13422,0.04979 6.00178,0.380003 8.58022,3.265776 2.27394,2.544982 2.86847,4.160529 2.86847,7.794605 0,3.880091 -0.52223,5.106451 -3.4,7.984221 -2.84619,2.84619 -4.10856,3.39348 -7.75,3.35996 -2.3925,-0.022 -5.53977,-0.68638 -6.99394,-1.47636 z M 364.31004,81.519502 c -0.20633,-0.6875 -0.87017,-3.95 -1.47519,-7.25 -0.60503,-3.3 -1.90798,-7.125 -2.89545,-8.5 -2.64606,-3.684513 -9.90426,-6.922463 -17.59207,-7.847987 -6.71594,-0.808523 -8.55263,-1.938163 -8.58407,-5.279568 -0.0287,-3.053213 2.62986,-4.147224 8.34349,-3.433354 14.92539,1.864804 22.07046,5.651091 26.06276,13.811065 3.17682,6.493182 5.03895,16.490038 3.43224,18.426004 -1.39302,1.678485 -6.79372,1.733175 -7.29171,0.07384 z m 2.78943,207.403968 c 2.08013,-8.06936 1.81731,-9.66429 -1.86932,-11.34403 -2.2703,-1.03442 -2.88212,-0.86456 -5.18667,1.43999 l -2.61275,2.61274 2.89184,7.57426 c 1.59051,4.16584 3.34939,7.42244 3.90861,7.2369 0.55922,-0.18555 1.84995,-3.56948 2.86829,-7.51986 z"
     id="path4138"
     inkscape:connector-curvature="0"
     sodipodi:nodetypes="sscccccccsssssssssssscssscsssssscssssssscssssssssscsscsssscssssscssscsscssssssssssssscccsssscsssssccccsssssscscssssssccsssssssssssssssscccsssccsssssssssssssssssssscscs" />
</svg>
