<?xml version="1.0" encoding="UTF-8" standalone="no"?>
<!-- Created with Inkscape (http://www.inkscape.org/) -->

<svg
   xmlns:dc="http://purl.org/dc/elements/1.1/"
   xmlns:cc="http://creativecommons.org/ns#"
   xmlns:rdf="http://www.w3.org/1999/02/22-rdf-syntax-ns#"
   xmlns:svg="http://www.w3.org/2000/svg"
   xmlns="http://www.w3.org/2000/svg"
   xmlns:sodipodi="http://sodipodi.sourceforge.net/DTD/sodipodi-0.dtd"
   xmlns:inkscape="http://www.inkscape.org/namespaces/inkscape"
   id="svg2"
   version="1.1"
   inkscape:version="0.91 r"
   width="2500"
   height="1731.25"
   viewBox="0 0 2500 1731.25"
   sodipodi:docname="bry.svg">
  <metadata
     id="metadata8">
    <rdf:RDF>
      <cc:Work
         rdf:about="">
        <dc:format>image/svg+xml</dc:format>
        <dc:type
           rdf:resource="http://purl.org/dc/dcmitype/StillImage" />
        <dc:title></dc:title>
      </cc:Work>
    </rdf:RDF>
  </metadata>
  <defs
     id="defs6" />
  <sodipodi:namedview
     pagecolor="#ffffff"
     bordercolor="#666666"
     borderopacity="1"
     objecttolerance="10"
     gridtolerance="10"
     guidetolerance="10"
     inkscape:pageopacity="0"
     inkscape:pageshadow="2"
     inkscape:window-width="1600"
     inkscape:window-height="851"
     id="namedview4"
     showgrid="false"
     inkscape:zoom="0.13"
     inkscape:cx="1265.3846"
     inkscape:cy="865.625"
     inkscape:window-x="0"
     inkscape:window-y="0"
     inkscape:window-maximized="1"
     inkscape:current-layer="svg2" />
  <path
     style="fill:#000000"
     d="m 741.76717,1714.7456 c 0.44945,-2.2663 20.94462,-97.2143 45.54483,-210.9956 l 44.72764,-206.875 159.29269,-0.3666 c 161.01817,-0.3708 198.75487,0.3181 228.34567,4.1681 47.7146,6.208 89.2841,20.3964 119.3589,40.7394 14.0901,9.5307 35.8709,30.9467 43.8629,43.1282 22.0587,33.6223 31.252,73.0299 27.2205,116.6826 -5.2193,56.5143 -25.6243,100.295 -63.5455,136.3426 -44.3455,42.1546 -104.2006,66.1197 -194.0748,77.7051 -20.1131,2.5927 -25.4764,2.6702 -216.08751,3.1252 l -195.4625,0.4665 0.81719,-4.1205 z m 904.63193,-258.1831 c 0.6233,-2.5781 21.0879,-97.1207 45.4768,-210.0946 24.389,-112.9739 44.6649,-205.927 45.0576,-206.5625 0.9411,-1.5228 300.177,-1.4528 339.9415,0.079 38.9868,1.5023 63.654,4.6819 91.875,11.8429 82.7206,20.9901 132.8771,70.2278 144.5053,141.8582 2.2562,13.8987 2.1978,47.18 -0.1113,63.4227 -10.2385,72.0165 -49.7021,126.3967 -117.2899,161.6236 -43.6671,22.7594 -98.1206,36.2088 -167.104,41.2729 -10.0236,0.7358 -91.2986,1.24 -200.1796,1.2419 l -183.3045,0 1.1333,-4.6875 z M 0.47434161,1055.3125 C 0.82788754,1054.1094 20.585757,962.84375 44.38072,852.5 68.175682,742.15625 88.50066,648.07812 89.547336,643.4375 L 91.450385,635 261.66269,635.0125 c 103.10357,0.007 177.35836,0.51595 188.33731,1.28964 123.51121,8.70386 196.39789,57.0919 216.45166,143.698 3.22638,13.93373 4.49329,49.83924 2.36744,67.09528 -6.37047,51.71065 -27.07056,94.27363 -62.28909,128.07722 -49.78206,47.78206 -125.71009,74.79996 -227.78001,81.05246 -12.22537,0.7489 -93.58334,1.2658 -199.77174,1.2692 -170.0290362,0.01 -179.11401325,-0.1056 -178.50391839,-2.1818 z M 865.62554,1054.6875 C 865.99578,1053.1406 885.97288,960.75 910.0191,849.375 934.06531,738 954.36046,644.20312 955.11943,640.9375 l 1.37992,-5.9375 170.18785,0.0125 c 103.0869,0.007 177.3341,0.51596 188.3128,1.28964 78.9256,5.5619 135.546,26.58323 173.1332,64.27875 30.6327,30.72093 44.8818,65.0344 46.4888,111.94976 1.4276,41.68116 -5.8691,75.76791 -23.5719,110.11611 -41.0363,79.62194 -132.4808,125.31964 -267.3001,133.57824 -12.2248,0.7488 -93.5636,1.2658 -199.7113,1.2692 l -179.08632,0.01 0.67316,-2.8125 z M 1770,799.6534 c 0,-0.40195 89.6343,-415.12743 90.6318,-419.3409 l 0.6658,-2.8125 173.5447,0 c 104.6231,0 179.9462,0.49842 189.6637,1.25503 120.6508,9.39383 193.3968,58.93973 211.9716,144.36997 3.551,16.33196 4.3962,49.15065 1.7767,68.99375 -6.4763,49.05806 -25.6168,89.07 -58.2099,121.68407 -20.8189,20.83222 -42.3845,35.60848 -71.2944,48.84927 -46.3085,21.20938 -100.5941,32.68901 -170.672,36.09147 C 2116.7781,799.77773 1770,800.63491 1770,799.6534 Z M 116.92728,417.1875 c 0.4348,-2.23438 20.85982,-96.875 45.38892,-210.3125 L 206.91456,0.625 380.01978,0.24881323 C 498.07364,-0.00773768 558.88916,0.31193671 571.25,1.2540074 670.34105,8.8061446 737.21385,43.869954 768.1531,104.49736 c 10.91566,21.38991 16.57234,44.30428 17.71296,71.75264 2.36014,56.7944 -16.66746,112.44036 -51.71207,151.23128 -48.06353,53.20156 -121.66348,83.22766 -225.16684,91.85987 -19.18574,1.60009 -52.80863,1.90885 -207.86914,1.90885 l -184.98129,0 0.79055,-4.0625 z m 865.01631,0.0512 C 982.4467,414.9762 1002.9112,320.3125 1027.4203,206.875 l 44.562,-206.25 182.4463,0 c 188.6176,0 190.7043,0.0481258 220.5714,5.0869775 98.4956,16.6171285 158.2121,65.9660965 173.0884,143.0380225 2.8915,14.98009 3.757,39.20926 2.0317,56.875 -8.7997,90.10517 -61.083,154.40711 -153.4075,188.67201 -22.5235,8.35926 -50.8722,15.5122 -79.6632,20.10056 -38.5871,6.14954 -32.8398,5.99452 -240.5975,6.48945 l -195.42306,0.46555 0.91475,-4.11378 z"
     id="path4140"
     inkscape:connector-curvature="0" />
</svg>
