<?xml version="1.0" encoding="UTF-8" standalone="no"?>
<!-- Created with Inkscape (http://www.inkscape.org/) -->

<svg
   xmlns:dc="http://purl.org/dc/elements/1.1/"
   xmlns:cc="http://creativecommons.org/ns#"
   xmlns:rdf="http://www.w3.org/1999/02/22-rdf-syntax-ns#"
   xmlns:svg="http://www.w3.org/2000/svg"
   xmlns="http://www.w3.org/2000/svg"
   xmlns:sodipodi="http://sodipodi.sourceforge.net/DTD/sodipodi-0.dtd"
   xmlns:inkscape="http://www.inkscape.org/namespaces/inkscape"
   id="svg2"
   version="1.1"
   inkscape:version="0.91 r13725"
   width="145"
   height="145"
   viewBox="0 0 145 145"
   sodipodi:docname="Carrier.svg">
  <metadata
     id="metadata8">
    <rdf:RDF>
      <cc:Work
         rdf:about="">
        <dc:format>image/svg+xml</dc:format>
        <dc:type
           rdf:resource="http://purl.org/dc/dcmitype/StillImage" />
        <dc:title></dc:title>
      </cc:Work>
    </rdf:RDF>
  </metadata>
  <defs
     id="defs6" />
  <sodipodi:namedview
     pagecolor="#ffffff"
     bordercolor="#666666"
     borderopacity="1"
     objecttolerance="10"
     gridtolerance="10"
     guidetolerance="10"
     inkscape:pageopacity="0"
     inkscape:pageshadow="2"
     inkscape:window-width="1831"
     inkscape:window-height="1173"
     id="namedview4"
     showgrid="false"
     inkscape:zoom="5.2444444"
     inkscape:cx="77.952685"
     inkscape:cy="69.243644"
     inkscape:window-x="1680"
     inkscape:window-y="-9"
     inkscape:window-maximized="1"
     inkscape:current-layer="svg2" />
  <path
     style="fill:#152c72;fill-opacity:1"
     d="m 7.7099128,110.04835 c -0.747178,-0.12493 -1.743584,-0.549 -2.441366,-1.03903 -3.0210051,-2.12157 -3.3705493,-6.38915 -0.736794,-8.99552 0.795092,-0.786825 1.789308,-1.361965 2.72816,-1.578185 0.346263,-0.0797 21.7401542,-0.11747 67.6968792,-0.11935 l 67.190638,-0.003 0,3.256965 c 0,1.91308 -0.0506,3.50295 -0.12274,3.85313 -0.19729,0.95832 -0.8513,2.16872 -1.56163,2.89017 -0.80431,0.81688 -1.6525,1.30415 -2.76583,1.58889 -0.86649,0.22161 -1.37448,0.22323 -65.289684,0.20803 -35.42901,-0.008 -64.5429462,-0.0365 -64.6976332,-0.0623 z m 1.472646,-1.9192 0.01015,-0.42188 0.10557,0.36563 c 0.108176,0.37465 0.2464129,0.42857 0.7517402,0.29322 0.221122,-0.0592 0.248873,-0.1205 0.190387,-0.42034 l -0.06847,-0.35101 0.215685,0.26882 c 0.214886,0.26782 0.216999,0.26805 0.568988,0.0601 0.404154,-0.23874 0.426922,-0.3386 0.165473,-0.72578 l -0.187829,-0.27816 0.303604,0.27581 0.303605,0.27582 0.356912,-0.35692 0.356912,-0.35691 -0.275812,-0.29444 -0.275812,-0.29444 0.3217,0.14609 c 0.286626,0.13016 0.339285,0.12204 0.483011,-0.0745 0.251614,-0.34402 0.315813,-0.73745 0.138641,-0.84965 -0.126091,-0.0798 -0.120556,-0.099 0.02899,-0.10043 0.223388,-0.002 0.321411,-0.22843 0.321411,-0.74217 l -1e-6,-0.38455 -1.33748,0 -1.33748,0 -0.07418,0.39541 c -0.09806,0.5227 -0.7271483,1.14618 -1.2567392,1.24554 -0.670025,0.12569 -1.391521,-0.23467 -1.710518,-0.85435 -0.808821,-1.5712 1.083142,-3.104 2.4312119,-1.96968 l 0.3214383,0.27048 0.943447,-0.94838 c 0.74249,-0.74637 0.914208,-0.97761 0.806171,-1.08565 -0.108038,-0.10804 -0.250953,-0.0301 -0.67095,0.36598 -0.293519,0.27679 -0.706719,0.65426 -0.918223,0.83883 l -0.3845513,0.33557 0.2645313,-0.45 c 0.145491,-0.2475 0.436012,-0.72234 0.645601,-1.0552 0.362057,-0.575 0.373563,-0.73884 0.05767,-0.82114 -0.07634,-0.0199 -0.421784,0.44478 -0.767653,1.03259 -0.3458683,0.58781 -0.5966082,0.95549 -0.5571982,0.81706 0.4145459,-1.45614 0.5847472,-2.16472 0.5325129,-2.21695 -0.03444,-0.0344 -0.143797,-0.0626 -0.243025,-0.0626 -0.132903,0 -0.258642,0.28885 -0.4774759,1.09687 l -0.297061,1.09688 -0.01002,-1.15313 -0.01003,-1.153125 -0.295997,0 -0.295996,0 0.05255,1.181555 c 0.0289,0.64986 0.03202,1.16102 0.0069,1.13592 -0.0251,-0.0251 -0.121218,-0.34163 -0.213604,-0.70342 -0.09239,-0.36179 -0.217377,-0.84764 -0.277758,-1.07968 -0.102144,-0.39251 -0.37483,-0.560655 -0.578669,-0.35682 -0.03578,0.0358 0.0551,0.50178 0.201952,1.03555 0.146855,0.53377 0.252241,0.98526 0.234191,1.00331 -0.01805,0.0181 -0.256584,-0.37119 -0.530077,-0.86499 -0.273492,-0.49379 -0.525552,-0.89862 -0.560132,-0.89961 -0.03458,-0.001 -0.157353,0.0673 -0.272827,0.15171 -0.200324,0.14648 -0.18933,0.18647 0.239702,0.87188 0.687363,1.0981 0.684787,1.10591 -0.109488,0.33174 -0.729027,-0.71058 -0.747164,-0.72027 -0.970028,-0.51858 -0.225219,0.20382 -0.221269,0.21109 0.474201,0.87297 l 0.701313,0.66744 -0.675,-0.36358 c -0.37125,-0.19997 -0.74376,-0.41692 -0.827799,-0.48211 -0.113228,-0.0878 -0.193348,-0.0631 -0.309375,0.0956 -0.08612,0.11777 -0.156576,0.25336 -0.156576,0.30131 0,0.048 0.367031,0.29614 0.815625,0.55154 0.448594,0.2554 0.739687,0.44117 0.646875,0.41283 -1.592631,-0.4863 -1.8,-0.49194 -1.8,-0.0489 0,0.2316 0.08915,0.2875 0.703125,0.44093 l 0.703125,0.17572 -0.759375,0.0126 -0.759375,0.0126 -7e-5,0.36562 -7e-5,0.36563 0.547288,-0.0379 c 1.014636,-0.0704 1.13316,0.0317 0.285592,0.24579 -0.75355,0.1904 -0.795468,0.21767 -0.744493,0.48432 0.07342,0.38409 0.237933,0.42207 0.933392,0.21554 0.813501,-0.24158 0.823955,-0.2182 0.07524,0.16826 -0.672095,0.34691 -0.72459,0.42487 -0.530417,0.78768 0.151207,0.28254 0.247555,0.27471 0.783542,-0.0636 0.647021,-0.40844 0.692577,-0.34457 0.1125,0.15774 l -0.50625,0.43839 0.274539,0.29448 0.274541,0.29449 0.446145,-0.4238 0.446146,-0.4238 -0.290557,0.53378 -0.290557,0.53378 0.241778,0.16935 c 0.365267,0.25584 0.502723,0.20934 0.746555,-0.25253 0.246606,-0.46713 0.290658,-0.39762 0.121596,0.19187 -0.125827,0.43873 -0.02469,0.56293 0.460705,0.56578 0.252596,10e-4 0.309377,-0.0648 0.408365,-0.4764 l 0.114974,-0.47813 0.01351,0.53438 0.01351,0.53437 0.45,0 c 0.443196,0 0.450153,-0.006 0.460146,-0.42187 z m 49.6531662,-1.08736 c 0.636638,-0.266 0.654908,-0.34665 0.636112,-2.80821 l -0.01192,-1.56119 -0.565867,0.0544 c -0.311227,0.0299 -0.592652,0.011 -0.62539,-0.0419 -0.03274,-0.053 -0.25536,-0.0963 -0.494717,-0.0963 -0.699502,0 -0.901526,0.35471 -0.901526,1.58285 0,0.5445 0.04972,1.12077 0.110483,1.2806 0.144141,0.37912 0.587329,0.54689 1.083067,0.41001 0.323549,-0.0893 0.381189,-0.0768 0.379728,0.0825 -9e-4,0.1033 -0.05254,0.26375 -0.114639,0.35656 -0.09872,0.14753 -0.131888,0.14399 -0.263805,-0.0281 -0.105407,-0.13752 -0.308227,-0.19686 -0.672862,-0.19686 -0.567825,0 -0.609488,0.0669 -0.351808,0.56524 0.261486,0.50566 1.095621,0.69198 1.793144,0.40053 z m -0.838309,-2.75752 c 0,-0.72714 0.03322,-0.90825 0.166607,-0.90825 0.218032,0 0.304854,0.37457 0.261915,1.12996 -0.02708,0.47639 -0.07832,0.61996 -0.231647,0.64911 -0.174333,0.0331 -0.196875,-0.0666 -0.196875,-0.87082 z m -39.850164,1.53084 0.306412,-0.30612 0.03538,-1.96649 0.03538,-1.96648 -0.626002,0 -0.626002,0 0,1.80353 c 0,1.54989 -0.02533,1.81325 -0.180103,1.87264 -0.315587,0.12111 -0.378911,-0.20503 -0.380674,-1.96054 l -0.0017,-1.71563 -0.5625,0 -0.5625,0 0,1.9199 c 0,1.09618 0.04948,2.01235 0.115329,2.13539 0.210178,0.39272 0.676359,0.56345 1.43451,0.52538 0.592142,-0.0297 0.755536,-0.0849 1.0125,-0.34158 z m 10.097583,0.0325 c 0.187188,-0.17586 0.277579,-0.38261 0.277579,-0.63491 0,-0.36843 -0.0077,-0.37414 -0.50625,-0.37414 -0.426118,0 -0.50625,0.0346 -0.50625,0.21836 0,0.20934 -0.188329,0.41831 -0.287562,0.31907 -0.02618,-0.0262 -0.07976,-0.20843 -0.119078,-0.40501 l -0.07148,-0.35742 0.801563,0 0.801562,0 -6.75e-4,-0.42188 c -0.0016,-1.14063 -0.408052,-1.60312 -1.408642,-1.60312 -0.425279,0 -0.580645,0.0602 -0.849336,0.32884 -0.317992,0.31799 -0.328847,0.36466 -0.328847,1.41365 0,0.59664 0.0519,1.18177 0.115328,1.30029 0.319057,0.59617 1.542449,0.72324 2.082093,0.21627 z m -1.053478,-2.00984 c -0.173895,-0.10747 -0.04972,-0.46171 0.161844,-0.46171 0.165651,0 0.219769,0.39775 0.06697,0.49219 -0.04936,0.0305 -0.152325,0.0168 -0.22881,-0.0305 z m 3.288391,2.25677 c 0.03196,-0.0517 0.326043,-0.0718 0.653513,-0.0447 l 0.595403,0.0494 0,-2.2616 0,-2.2616 -0.534375,0 c -0.573029,0 -0.605084,0.0518 -0.538916,0.8708 0.01895,0.23458 -0.01344,0.24743 -0.466988,0.18526 -0.387278,-0.0531 -0.544834,-0.0203 -0.767286,0.15965 -0.264287,0.21378 -0.282042,0.29907 -0.317631,1.52591 -0.0367,1.26496 -0.03011,1.30705 0.248012,1.58517 0.284287,0.28429 0.996276,0.40525 1.128268,0.19168 z m -0.19249,-0.76614 c -0.130804,-0.1308 -0.08846,-1.81969 0.04773,-1.90386 0.226412,-0.13993 0.326811,0.22029 0.297526,1.06749 -0.02639,0.76339 -0.140886,1.04075 -0.34526,0.83637 z m 8.100412,0.47458 c 0.144136,-0.16756 0.259745,-0.44939 0.259745,-0.63319 0,-0.3168 -0.02172,-0.33123 -0.498426,-0.33123 -0.431234,0 -0.503272,0.0341 -0.534375,0.25313 -0.0565,0.3978 -0.36776,0.31213 -0.408702,-0.1125 l -0.03525,-0.36563 0.738378,0 0.738378,0 0,-0.68365 c 0,-0.60562 -0.03754,-0.72119 -0.328847,-1.0125 -0.276828,-0.27683 -0.41891,-0.32885 -0.898224,-0.32885 -0.463816,0 -0.632342,0.0574 -0.908975,0.30938 -0.334056,0.30433 -0.339777,0.32828 -0.350774,1.46906 -0.0095,0.98053 0.02101,1.19548 0.197195,1.3914 0.3071,0.3415 0.593568,0.43289 1.214255,0.38734 0.434087,-0.0318 0.61279,-0.10695 0.815625,-0.34276 z m -1.182455,-2.11754 c 0.01977,-0.13922 0.111887,-0.25313 0.2047,-0.25313 0.09281,0 0.184927,0.11391 0.204699,0.25313 0.02767,0.19481 -0.01949,0.25312 -0.204699,0.25312 -0.185213,0 -0.232368,-0.0583 -0.2047,-0.25312 z m 3.960243,2.39564 c 0.338233,-0.12859 0.602328,-0.50375 0.700633,-0.99527 l 0.07195,-0.35975 -0.62534,0 c -0.584701,0 -0.627654,0.0185 -0.660938,0.28475 -0.01958,0.15661 -0.08622,0.28348 -0.148097,0.28193 -0.06334,-0.002 -0.126704,-0.42097 -0.145005,-0.95975 -0.02719,-0.80044 -0.0042,-0.95693 0.140625,-0.95693 0.109672,0 0.17313,0.10309 0.17313,0.28125 0,0.25833 0.04125,0.28125 0.50625,0.28125 0.278438,0 0.544219,-0.003 0.590625,-0.006 0.22876,-0.0164 9e-4,-0.74871 -0.325766,-1.04698 -0.323387,-0.29528 -0.408061,-0.31773 -1.028722,-0.27284 -0.56422,0.0408 -0.720137,0.0999 -0.940609,0.35616 -0.237306,0.27589 -0.264278,0.41644 -0.264278,1.37712 0,0.58843 0.05461,1.17191 0.121358,1.29663 0.238956,0.44649 1.205414,0.67753 1.834185,0.43847 z m 9.618588,-0.0172 c 0.529271,-0.1845 0.68837,-0.59497 0.68837,-1.77594 0,-0.89474 -0.03006,-1.04676 -0.259745,-1.31379 -0.201452,-0.2342 -0.390516,-0.31453 -0.842447,-0.35796 -1.212324,-0.11649 -1.541559,0.27533 -1.541559,1.83457 0,0.88109 0.03427,1.07749 0.225001,1.2894 0.400798,0.44529 1.039095,0.56471 1.73038,0.32372 z m -0.802195,-0.74124 c -0.02678,-0.0497 -0.04407,-0.49432 -0.03843,-0.98812 0.0088,-0.76826 0.03931,-0.9035 0.211636,-0.93724 0.183111,-0.0359 0.198426,0.0499 0.16875,0.94498 -0.02055,0.61978 -0.08091,1.00039 -0.162953,1.02755 -0.07167,0.0237 -0.152223,0.002 -0.178999,-0.0472 z m 5.993404,0.58212 c 0.32216,-0.29155 0.398687,-0.70451 0.334661,-1.80589 -0.05221,-0.89816 -0.07991,-0.98796 -0.385912,-1.25101 -0.291446,-0.25054 -0.407528,-0.27776 -1.001347,-0.2348 -0.559322,0.0405 -0.715894,0.1 -0.935963,0.35582 -0.237306,0.27589 -0.264278,0.41643 -0.264278,1.37712 0,0.58843 0.05461,1.17191 0.121358,1.29663 0.287637,0.53745 1.64306,0.70414 2.131481,0.26213 z m -1.052839,-0.57868 c -0.04125,-0.0412 -0.075,-0.49687 -0.075,-1.0125 0,-0.75833 0.03225,-0.9375 0.16875,-0.9375 0.1375,0 0.16875,0.1875 0.16875,1.0125 0,0.92864 -0.05936,1.14064 -0.2625,0.9375 z m 8.860046,0.70464 c 0.27225,-0.11376 0.41493,-0.27031 0.510636,-0.5603 0.171346,-0.51919 0.09021,-0.63184 -0.455106,-0.63184 -0.375169,0 -0.463565,0.0458 -0.55565,0.28802 -0.137754,0.36232 -0.334926,0.25508 -0.334926,-0.18216 l 0,-0.33086 0.744357,0 0.744355,0 -0.04671,-0.73361 c -0.0648,-1.01757 -0.289077,-1.23514 -1.27325,-1.23514 -1.061708,0 -1.225164,0.19548 -1.277021,1.52719 -0.02539,0.65205 0.01166,1.1385 0.103626,1.36052 0.242285,0.58493 1.085548,0.81328 1.839691,0.49818 z m -0.835046,-2.37339 c 0,-0.175 0.06375,-0.28125 0.16875,-0.28125 0.105,0 0.16875,0.10625 0.16875,0.28125 0,0.175 -0.06375,0.28125 -0.16875,0.28125 -0.104999,0 -0.16875,-0.10625 -0.16875,-0.28125 z m 3.939753,2.36134 c 0.405768,-0.20983 0.560248,-0.48508 0.560248,-0.99822 0,-0.43199 -0.32602,-0.75343 -1.153125,-1.13691 -0.451661,-0.20941 -0.567294,-0.50746 -0.196875,-0.50746 0.149999,0 0.225,0.075 0.225,0.225 0,0.19122 0.075,0.225 0.49961,0.225 0.274786,0 0.520479,-0.038 0.545985,-0.0844 0.121252,-0.22062 -0.173832,-0.82445 -0.480358,-0.98296 -0.63453,-0.32813 -1.777454,-0.12899 -1.957855,0.34113 -0.117968,0.30742 -0.07771,0.89749 0.07553,1.10706 0.07998,0.10937 0.395749,0.3342 0.70172,0.49963 0.593331,0.32078 0.807838,0.69452 0.39862,0.69452 -0.128286,0 -0.239577,-0.0506 -0.247311,-0.1125 -0.0077,-0.0619 -0.02039,-0.17578 -0.02813,-0.25313 -0.0085,-0.0853 -0.224216,-0.15411 -0.548437,-0.17491 -0.471447,-0.0302 -0.534375,-0.008 -0.534375,0.19158 0,0.40213 0.267617,0.82761 0.616023,0.97941 0.458442,0.19974 1.123441,0.19413 1.523729,-0.0129 z m -46.665315,-1.20821 c 0.02604,-1.03587 0.06245,-1.26563 0.20056,-1.26563 0.138115,0 0.174524,0.22976 0.200559,1.26563 l 0.03181,1.26562 0.558816,0 0.558816,0 0,-1.46761 c 0,-1.40821 -0.01118,-1.47879 -0.276137,-1.74375 -0.318512,-0.31852 -0.792002,-0.3597 -1.161331,-0.10101 -0.140146,0.0982 -0.250032,0.12288 -0.250032,0.0562 0,-0.0659 -0.225639,-0.11888 -0.50625,-0.11888 l -0.50625,0 0,1.6875 0,1.6875 0.558815,0 0.558816,0 0.03181,-1.26562 z m 3.23806,-0.42188 0,-1.6875 -0.5625,0 -0.5625,0 0,1.6875 0,1.6875 0.5625,0 0.5625,0 0,-1.6875 z m 2.270653,1.37813 c 0.02521,-0.21914 -0.03003,-0.3431 -0.189403,-0.42499 -0.196517,-0.10097 -0.225,-0.22914 -0.225,-1.0125 0,-0.78513 0.02453,-0.89494 0.196875,-0.88126 0.151845,0.012 0.196875,-0.0716 0.196875,-0.36563 0,-0.2974 -0.04626,-0.38125 -0.210346,-0.38125 -0.125621,0 -0.210036,-0.0793 -0.209578,-0.19687 0.0032,-0.82677 0.01131,-0.81563 -0.592576,-0.81563 l -0.5625,0 0,0.50625 c 0,0.375 -0.04375,0.50625 -0.16875,0.50625 -0.1125,0 -0.16875,0.1125 -0.16875,0.3375 0,0.225 0.05625,0.3375 0.16875,0.3375 0.138534,0 0.16875,0.19764 0.16875,1.10379 0,1.36992 0.143103,1.59621 1.00941,1.59621 0.517074,0 0.552816,-0.0189 0.586243,-0.30937 z m 9.879348,-1.49063 0,-1.8 0.39375,0 c 0.384375,0 0.39375,-0.0107 0.39375,-0.45 l 0,-0.45 -1.29375,0 c -0.711563,0 -1.331719,-0.0127 -1.378125,-0.0281 -0.04641,-0.0155 -0.09994,0.18703 -0.118969,0.45 l -0.03459,0.47813 0.400219,0 0.400219,0 0,1.8 0,1.8 0.61875,0 0.61875,0 0,-1.8 z m 7.875,0.56914 c 0,-0.78174 0.04564,-1.25907 0.125078,-1.30816 0.233933,-0.14458 0.321474,0.2308 0.3232,1.3859 l 0.0017,1.15312 0.5625,0 0.5625,0 0,-1.44733 c 0,-1.31282 -0.02259,-1.47604 -0.243059,-1.75633 -0.218883,-0.27826 -0.297213,-0.30379 -0.7875,-0.25668 l -0.544441,0.0523 0,-0.54599 0,-0.54598 -0.5625,0 -0.5625,0 0,2.25 0,2.25 0.5625,0 0.5625,0 0,-1.23086 z m 3.286941,-0.0348 c 0.02604,-1.03586 0.06244,-1.26562 0.200559,-1.26562 0.138116,0 0.174525,0.22976 0.20056,1.26562 l 0.03181,1.26563 0.558816,0 0.558815,0 0,-1.44733 c 0,-1.29388 -0.02472,-1.47876 -0.233165,-1.74375 -0.271595,-0.34528 -0.807465,-0.39925 -1.204302,-0.1213 -0.140146,0.0982 -0.250033,0.12289 -0.250033,0.0562 0,-0.0659 -0.225639,-0.11887 -0.50625,-0.11887 l -0.50625,0 0,1.6875 0,1.6875 0.558816,0 0.558816,0 0.03181,-1.26563 z m 6.38806,-0.98438 0,-2.25 -0.590625,-1.1e-4 -0.590625,-1.1e-4 0.03264,2.25011 0.03264,2.25012 0.557984,0 0.557983,0 0,-2.25 z m 8.1,0.5625 0,-1.6875 -0.5625,0 -0.5625,0 0,1.6875 0,1.6875 0.5625,0 0.5625,0 0,-1.6875 z M 11.497905,103.7073 c 1.365849,-0.31795 1.387008,-0.3257 1.387008,-0.50761 0,-0.2041 0.07283,-0.2112 -1.273363,0.1242 -1.438939,0.3585 -1.455427,0.36453 -1.370879,0.50134 0.09309,0.15061 0.110778,0.14895 1.257234,-0.11793 z m 0.458768,-1.07556 c 0.60134,-0.33042 0.681505,-0.42385 0.473825,-0.5522 -0.125496,-0.0776 -2.358085,1.13819 -2.358085,1.28409 0,0.23101 0.194423,0.20763 0.720303,-0.0866 0.315396,-0.17645 0.839177,-0.46684 1.163957,-0.6453 z m 11.503241,-0.60572 0,-0.45 -0.5625,0 -0.5625,0 0,0.45 0,0.45 0.5625,0 0.5625,0 0,-0.45 z m 37.800002,-0.0671 0,-0.38289 -0.5625,0 -0.5625,0 -7e-5,0.42187 -6.9e-5,0.42188 0.562569,-0.039 c 0.557263,-0.0386 0.56257,-0.0426 0.56257,-0.42188 z m 5.231251,-8.036025 C 43.513542,93.055205 23.628425,88.040575 11.422413,80.035625 6.9218008,77.084035 3.7708678,73.823925 2.0360648,70.324035 -0.29048297,65.630319 0.22142188,60.702279 3.522583,56.013516 4.5947148,54.490727 7.3855418,51.727862 9.2849128,50.308918 19.689854,42.535808 37.123591,37.223587 58.109916,35.431489 c 5.440056,-0.464546 9.497349,-0.597255 16.256251,-0.531723 3.465,0.0336 6.451876,0.08623 6.637501,0.116968 0.185625,0.03074 0.995625,0.08671 1.8,0.124394 1.870473,0.08762 6.170226,0.451357 8.775,0.742321 19.248432,2.15013 35.823552,7.700241 44.981322,15.061811 1.69801,1.364957 3.93771,3.667449 4.93546,5.073829 1.38327,1.949786 2.35603,4.116278 2.72754,6.074684 0.25359,1.336858 0.22811,3.464686 -0.0583,4.870822 -1.31596,6.45987 -7.70291,12.48271 -18.38598,17.33783 -11.63324,5.28694 -27.094628,8.57597 -44.718762,9.51282 -2.98823,0.15884 -11.539708,0.22203 -14.568751,0.10765 z m 13.725,-3.37145 c 13.007871,-0.57782 24.728323,-2.39942 34.875013,-5.42032 13.48433,-4.0146 22.49917,-9.71714 25.48929,-16.12385 0.79749,-1.70871 0.94908,-2.45134 0.94153,-4.612502 -0.006,-1.75394 -0.0322,-1.995759 -0.31464,-2.91674 -1.754,-5.719813 -8.09685,-10.916769 -18.40993,-15.083986 C 111.87076,41.978898 97.882862,39.250908 81.509918,38.34195 78.109738,38.153186 68.103768,38.129544 64.522416,38.30181 47.15411,39.137253 32.326237,42.08484 20.700043,47.013126 12.811171,50.35718 7.0252598,54.814101 4.7075058,59.332271 c -0.83423,1.626227 -1.166704,2.838904 -1.241794,4.529358 -0.072347,1.62871 0.0753,2.709166 0.556849,4.074926 0.42683,1.21057 0.687988,1.72266 1.521375,2.98322 4.1045309,6.20839 14.2363952,11.67598 28.3784792,15.31425 9.011033,2.31824 19.558109,3.80672 30.517392,4.30684 2.860579,0.13054 12.923837,0.13729 15.77636,0.0106 z m -13.739852,-1.35592 c -26.424911,-0.87044 -49.051957,-7.19188 -58.1564202,-16.24748 -2.80955,-2.79446 -4.100092,-5.50068 -4.095819,-8.588762 0.004,-2.910914 1.210517,-5.469335 3.874927,-8.216962 C 14.12304,49.930134 26.430704,44.930277 42.866165,42.018534 c 5.821407,-1.031332 12.319095,-1.760635 19.856251,-2.228672 3.115258,-0.193448 16.459744,-0.193448 19.575002,0 17.849252,1.108388 32.210252,4.067421 43.081852,8.876856 5.16529,2.285051 8.8439,4.680929 11.64965,7.58741 3.41862,3.541383 4.54831,7.267463 3.35291,11.059017 -2.38639,7.5691 -14.29656,14.33106 -32.30685,18.34213 -12.303438,2.74008 -27.25664,4.01268 -41.598665,3.54025 z m 22.712714,-16.4538 c 1.351431,-0.49055 3.865789,-2.52282 4.234853,-3.4229 0.186006,-0.45364 0.0851,-0.89164 -0.22833,-0.99112 -0.195996,-0.0622 -0.443179,0.12597 -1.377864,1.04895 -0.626461,0.61861 -1.256882,1.18481 -1.400936,1.25822 -0.365711,0.18636 -0.581834,0.0683 -0.581834,-0.31774 0,-0.46938 0.480781,-2.06458 1.083356,-3.59451 0.844565,-2.144346 2.413251,-7.289142 2.484034,-8.14685 0.06123,-0.741983 0.05661,-0.758703 -0.241054,-0.871874 -0.432434,-0.164412 -1.168523,-0.142699 -1.830907,0.05401 -0.693741,0.206019 -1.312297,0.838006 -1.499068,1.531622 -0.07054,0.261947 -0.749633,2.251847 -1.509107,4.422 -1.940129,5.543812 -2.350697,6.959912 -2.290764,7.901122 0.04241,0.66609 0.08471,0.77645 0.408437,1.0657 0.328971,0.29394 0.435629,0.32266 1.197981,0.32266 0.592128,0 1.045759,-0.0758 1.551203,-0.25929 z m 13.276911,0.0825 c 0.75304,-0.19513 1.83587,-0.70855 2.44399,-1.1588 1.28135,-0.94871 2.47905,-2.00023 2.65909,-2.33454 0.18949,-0.35185 0.19264,-0.41229 0.036,-0.6913 -0.0944,-0.16815 -0.2458,-0.31844 -0.33648,-0.33397 -0.0907,-0.0155 -0.67113,0.3794 -1.28988,0.87761 -1.71637,1.382 -2.95307,1.88003 -4.38332,1.76523 -1.27226,-0.10213 -2.195468,-0.84 -2.420298,-1.9344 -0.0895,-0.43563 -0.0772,-0.7938 0.0525,-1.52554 0.0932,-0.52594 0.16957,-0.9613 0.16965,-0.96747 9e-5,-0.006 0.519059,-0.0446 1.153278,-0.0854 4.28734,-0.27575 7.42039,-1.661233 8.46708,-3.744267 0.2847,-0.5666 0.33699,-0.813845 0.37245,-1.761122 0.0377,-1.007974 0.016,-1.153679 -0.25521,-1.707931 -0.75036,-1.533688 -2.65915,-2.285219 -5.03143,-1.980987 -3.82469,0.490496 -7.069448,3.397588 -8.260978,7.401287 -0.39604,1.330742 -0.49754,3.45374 -0.21674,4.53337 0.24219,0.93119 0.75533,1.83158 1.40509,2.46543 0.48763,0.4757 1.77037,1.16805 2.36662,1.27736 0.684888,0.12557 2.426058,0.0719 3.068518,-0.0946 z m -2.596909,-8.12009 c 0.185649,-0.675354 1.157539,-2.627838 1.727829,-3.471164 1.03096,-1.52455 2.38327,-2.631961 3.21402,-2.631961 0.42677,0 0.94687,0.474616 1.17516,1.072373 0.1633,0.427592 0.17304,0.599294 0.0646,1.13923 -0.37835,1.883928 -1.52362,3.172107 -3.38223,3.804261 -0.75004,0.255101 -2.06556,0.509132 -2.6366,0.509132 -0.267739,0 -0.274169,-0.01668 -0.162779,-0.421875 z m -66.002451,7.47605 c 1.66665,-0.35539 3.926315,-1.46873 4.844467,-2.38689 0.775359,-0.77535 0.781233,-1.62979 0.0112,-1.62979 -0.276251,0 -0.533115,0.13919 -1.036667,0.56173 -1.676163,1.40652 -4.78522,2.2957 -6.708854,1.91873 -2.500146,-0.48996 -3.841252,-2.34244 -3.831847,-5.292955 0.0058,-1.806693 0.455006,-3.446744 1.540815,-5.625 1.972655,-3.95737 4.464154,-6.192342 7.920244,-7.10477 0.97751,-0.258067 3.784471,-0.411411 4.061265,-0.221866 0.140749,0.09638 0.127664,0.221435 -0.09388,0.897218 l -0.257427,0.785226 0.217386,0.491437 c 0.540711,1.222367 1.679177,1.523315 3.079068,0.813936 0.798108,-0.404432 1.147221,-0.928782 1.203146,-1.807072 0.05633,-0.884671 -0.08593,-1.252664 -0.704803,-1.82312 -1.190727,-1.097573 -4.478463,-1.439343 -7.657029,-0.79597 -3.425666,0.693389 -6.636763,2.35709 -9.09154,4.710417 -2.632732,2.523927 -4.143519,5.425814 -4.582048,8.801101 -0.321872,2.477398 0.71938,4.852238 2.819734,6.431098 1.076418,0.80916 2.583358,1.43161 3.766353,1.55571 0.689432,0.0723 3.739229,-0.11686 4.500416,-0.27917 z m 12.201606,-0.0775 c 0.932669,-0.36763 1.784156,-0.97413 2.744582,-1.95494 l 0.896462,-0.91548 -0.06936,0.67433 c -0.197588,1.92092 0.887632,2.87736 2.653282,2.33842 0.975993,-0.29791 1.788549,-0.86556 2.904638,-2.02919 1.433035,-1.49407 1.970812,-2.73052 1.224629,-2.81565 -0.231369,-0.0264 -0.394907,0.11328 -0.922087,0.7875 -2.714708,3.47192 -2.582695,1.5682 0.488079,-7.038493 0.548588,-1.53757 1.027093,-2.98107 1.063345,-3.207776 0.102602,-0.641629 -0.186385,-0.831788 -1.357491,-0.893254 -1.235683,-0.06486 -1.425739,-0.0069 -1.725211,0.52592 l -0.248797,0.442673 -0.798163,-0.40951 c -0.716345,-0.367533 -0.886333,-0.409131 -1.658294,-0.405803 -1.935558,0.0083 -4.18624,1.194654 -6.217239,3.277039 -2.319739,2.378432 -3.586448,5.287863 -3.620555,8.315834 -0.01205,1.0695 0.009,1.1814 0.354689,1.88354 0.277774,0.56424 0.496216,0.83505 0.894721,1.10923 0.994809,0.68445 2.177822,0.79449 3.392773,0.31561 z m 0.0065,-2.37597 c -0.72261,-0.2916 -1.057078,-0.9033 -1.039216,-1.90071 0.01744,-0.97373 0.345609,-2.00384 1.200645,-3.768749 1.804263,-3.724241 4.55818,-6.103581 6.126047,-5.292806 0.937858,0.484986 0.669624,2.094848 -0.884629,5.309301 -1.856604,3.839764 -4.094207,6.180974 -5.402799,5.652954 z m 16.750046,2.61353 c 0.436831,-0.1222 0.65351,-0.52993 1.293648,-2.43429 1.042246,-3.10061 2.276566,-5.736596 3.713247,-7.929941 0.792866,-1.210448 1.333093,-1.8 1.649401,-1.8 0.163295,0 0.216346,0.07931 0.216346,0.323437 0,0.579746 0.13804,1.032315 0.349367,1.145414 0.11393,0.06097 0.560792,0.117391 0.99303,0.125373 0.693194,0.0128 0.832991,-0.02142 1.185283,-0.290123 1.145902,-0.874023 1.298933,-3.189769 0.268106,-4.057152 -0.266844,-0.224535 -0.460635,-0.284217 -0.920043,-0.28335 -1.643849,0.0031 -3.089522,1.486475 -4.981704,5.111605 -0.405445,0.776763 -0.751443,1.412296 -0.768889,1.412296 -0.01744,0 0.166726,-0.797344 0.409269,-1.771875 0.710596,-2.855153 0.699852,-4.254342 -0.03569,-4.647991 -0.754843,-0.40398 -2.211037,0.08318 -3.386848,1.133043 -1.155382,1.031624 -2.674388,3.097977 -2.674388,3.638058 0,0.230495 0.279564,0.426436 0.492077,0.344887 0.100704,-0.03864 0.507836,-0.486135 0.904738,-0.994427 0.796431,-1.019946 1.479297,-1.673875 1.679388,-1.608224 0.225044,0.07384 0.208815,0.836392 -0.03705,1.741002 -0.13032,0.479477 -0.840362,2.720197 -1.577873,4.979378 -0.737509,2.25918 -1.431287,4.45273 -1.541727,4.87456 -0.196473,0.75043 -0.196094,0.7704 0.01758,0.92677 0.230822,0.16893 2.210645,0.21319 2.752732,0.0615 z m 14.191374,-0.0176 c 0.306433,-0.164 0.469473,-0.52446 1.096953,-2.42524 1.011275,-3.0634 2.367241,-5.910871 3.839298,-8.062375 0.880364,-1.286708 1.382231,-1.791835 1.581897,-1.592169 0.0612,0.0612 0.136032,0.362277 0.1663,0.669069 0.07635,0.77382 0.317788,0.951552 1.292648,0.951552 0.914635,0 1.382802,-0.261142 1.789774,-0.998331 0.291085,-0.52727 0.434439,-1.620177 0.303832,-2.316371 -0.102214,-0.544847 -0.76316,-1.270949 -1.237986,-1.360026 -0.894226,-0.167758 -2.167339,0.51771 -3.130685,1.68562 -0.642047,0.778383 -1.681832,2.47037 -2.441844,3.973483 -0.258058,0.510463 -0.48754,0.928119 -0.509913,0.928119 -0.02237,0 0.104199,-0.544219 0.281269,-1.209375 0.455086,-1.709526 0.674769,-2.967434 0.674769,-3.863778 0,-0.695637 -0.03299,-0.810194 -0.32851,-1.140697 -0.301747,-0.337472 -0.381935,-0.366848 -0.984375,-0.360621 -0.487986,0.005 -0.828642,0.09143 -1.330866,0.3375 -1.170489,0.573489 -3.380426,2.975965 -3.836875,4.171159 -0.169796,0.444603 -0.17282,0.523082 -0.02582,0.670081 0.259553,0.259553 0.498502,0.09094 1.252872,-0.88409 0.920578,-1.189858 0.983477,-1.259581 1.339251,-1.484562 0.392809,-0.248401 0.539322,-0.147843 0.539322,0.370159 0,0.586923 -0.273312,1.530549 -1.797717,6.206723 -1.548881,4.75126 -1.746177,5.42827 -1.652815,5.67157 0.0575,0.14984 0.295533,0.17843 1.485648,0.17843 0.779447,0 1.514574,-0.0521 1.633616,-0.11583 z m 36.982654,0.0437 c 0.33939,-0.0909 0.49631,-0.41681 1.15347,-2.3955 1.1786,-3.54871 3.18538,-7.539097 4.60403,-9.15485 0.71876,-0.818618 1.01105,-0.790434 1.0144,0.09781 0.003,0.737425 0.18296,0.881114 1.16722,0.930817 0.7195,0.03633 0.91003,0.0059 1.23962,-0.197762 1.40619,-0.869078 1.39464,-3.769907 -0.0174,-4.359882 -0.82676,-0.345445 -2.00077,0.140353 -3.05014,1.262132 -0.83653,0.894264 -1.48866,1.88635 -2.47438,3.764322 -0.43844,0.835312 -0.79797,1.482374 -0.79895,1.437915 -0.001,-0.04446 0.17633,-0.778522 0.39403,-1.63125 0.96201,-3.76832 0.77372,-4.935034 -0.79399,-4.919826 -1.1202,0.01087 -2.41059,0.881991 -3.82457,2.581911 -1.2446,1.496287 -1.62743,2.316815 -1.2335,2.64375 0.2244,0.186225 0.33861,0.08542 1.36744,-1.206833 0.8742,-1.098046 1.27925,-1.446784 1.5567,-1.340318 0.36641,0.140607 0.10109,1.293437 -1.23353,5.359651 -2.10788,6.422123 -2.24083,6.893533 -2.00935,7.125003 0.094,0.094 2.58976,0.0964 2.93887,0.003 z M 93.860482,55.749198 c 1.30927,-0.90732 1.42047,-3.223891 0.17965,-3.742339 -1.040017,-0.434546 -2.307825,0.169704 -2.792996,1.331168 -0.268769,0.643413 -0.229573,1.660817 0.08178,2.122838 0.359125,0.532906 0.698489,0.681569 1.450027,0.635206 0.467964,-0.02887 0.755932,-0.121227 1.081539,-0.346873 z"
     id="path4138"
     inkscape:connector-curvature="0" />
</svg>
