<?xml version="1.0" encoding="UTF-8" standalone="no"?>
<!-- Created with Inkscape (http://www.inkscape.org/) -->

<svg
   xmlns:dc="http://purl.org/dc/elements/1.1/"
   xmlns:cc="http://creativecommons.org/ns#"
   xmlns:rdf="http://www.w3.org/1999/02/22-rdf-syntax-ns#"
   xmlns:svg="http://www.w3.org/2000/svg"
   xmlns="http://www.w3.org/2000/svg"
   xmlns:sodipodi="http://sodipodi.sourceforge.net/DTD/sodipodi-0.dtd"
   xmlns:inkscape="http://www.inkscape.org/namespaces/inkscape"
   id="svg2"
   version="1.1"
   inkscape:version="0.91 r13725"
   width="782"
   height="768"
   viewBox="0 0 782 768"
   sodipodi:docname="exc.svg">
  <metadata
     id="metadata8">
    <rdf:RDF>
      <cc:Work
         rdf:about="">
        <dc:format>image/svg+xml</dc:format>
        <dc:type
           rdf:resource="http://purl.org/dc/dcmitype/StillImage" />
        <dc:title></dc:title>
      </cc:Work>
    </rdf:RDF>
  </metadata>
  <defs
     id="defs6" />
  <sodipodi:namedview
     pagecolor="#ffffff"
     bordercolor="#666666"
     borderopacity="1"
     objecttolerance="10"
     gridtolerance="10"
     guidetolerance="10"
     inkscape:pageopacity="0"
     inkscape:pageshadow="2"
     inkscape:window-width="1831"
     inkscape:window-height="1173"
     id="namedview4"
     showgrid="false"
     inkscape:zoom="0.30729167"
     inkscape:cx="391"
     inkscape:cy="384"
     inkscape:window-x="80"
     inkscape:window-y="-9"
     inkscape:window-maximized="1"
     inkscape:current-layer="svg2" />
  <path
     style="fill:#207245;fill-opacity:1"
     d="M 394,761.94622 C 369.63792,757.24833 263.05416,738.55083 89.5,708.52917 43.3,700.53742 4.2625,693.73825 2.75,693.41991 L 0,692.84109 0,381.92054 C 0,176.20433 0.3369053,71 0.99568888,71 2.0099796,71 289.31713,21.242419 367.45097,7.5350698 L 410.40194,0 436.20097,0 462,0 l 0,35.464948 0,35.464948 144.75,0.333932 c 156.60848,0.361289 151.35833,0.179658 161.99123,5.604156 7.33769,3.743413 10.82921,12.551452 12.34076,31.132016 0.66733,8.20303 0.89616,103.76771 0.66566,278 -0.32701,247.18795 -0.47083,266.08211 -2.08521,273.93984 -2.71836,13.23117 -6.21011,17.38997 -18.00417,21.44357 -6.14722,2.11279 -6.4216,2.11708 -152.90827,2.38908 L 462,684.04497 462,724.02249 462,764 432.75,763.88908 c -23.8943,-0.0906 -30.98946,-0.44635 -38.75,-1.94286 z M 755,377.5 755,97 608.5,97 462,97 l 0,27 0,27 35.5,0 35.5,0 0,31 0,31 -35.5,0 -35.5,0 0,18 0,18 35.5,0 35.5,0 0,31 0,31 -35.5,0 -35.5,0 0,18 0,18 35.5,0 35.5,0 0,31 0,31 -35.5,0 -35.5,0 0,18 0,18 35.5,0 35.5,0 0,30.5 0,30.5 -35.5,0 -35.5,0 0,18 0,18 35.5,0 35.5,0 0,31 0,31 -35.5,0 -35.5,0 0,27 0,27 146.5,0 146.5,0 0,-280.5 z M 569,573 l 0,-31 62,0 62,0 0,31 0,31 -62,0 -62,0 0,-31 z m 0,-97.5 0,-30.5 62,0 62,0 0,30.5 0,30.5 -62,0 -62,0 0,-30.5 z m 0,-97.5 0,-31 62,0 62,0 0,31 0,31 -62,0 -62,0 0,-31 z m 0,-98 0,-31 62,0 62,0 0,31 0,31 -62,0 -62,0 0,-31 z m 0,-98 0,-31 62,0 62,0 0,31 0,31 -62,0 -62,0 0,-31 z M 326,525.65947 c 0,-0.18729 -16.58572,-33.78835 -36.85716,-74.66901 l -36.85716,-74.32849 12.23738,-25.08099 c 6.73057,-13.79454 22.8386,-46.56848 35.79563,-72.83098 l 23.55824,-47.75 -6.18846,0.005 c -7.63931,0.006 -53.96255,2.93618 -54.47246,3.44609 -0.20359,0.20359 -7.00498,15.82297 -15.11421,34.70975 -13.64799,31.78682 -24.1526,58.30421 -27.1711,68.58959 -0.686,2.3375 -1.51355,4.24725 -1.83899,4.2439 -0.32544,-0.003 -3.36951,-8.21586 -6.76459,-18.25 -6.36308,-18.80603 -30.8497,-82.73436 -32.11525,-83.84474 -0.90519,-0.79421 -56.88471,2.44034 -57.78313,3.33877 -0.36778,0.36777 10.26237,24.20219 23.62253,52.96537 13.36017,28.76319 27.36011,59.18361 31.11098,67.60094 l 6.81976,15.30423 -12.84472,24.69577 c -19.63835,37.75748 -55.46835,109.19803 -55.00108,109.6653 0.2285,0.22851 13.45384,0.72291 29.38963,1.09867 l 28.97416,0.68321 1.90365,-4.87571 c 1.04702,-2.68164 8.53428,-20.40071 16.63837,-39.37571 8.10409,-18.975 16.87867,-40.25648 19.49907,-47.29218 l 4.76436,-12.79218 4.21163,12.79218 c 5.31673,16.1487 12.1972,33.31014 27.78033,69.29033 l 12.34263,28.49815 17.42998,1.19202 c 9.58649,0.65561 23.50498,1.60156 30.92998,2.10212 7.425,0.50055 14.0625,0.97747 14.75,1.05983 0.6875,0.0824 1.25,-0.004 1.25,-0.1908 z"
     id="path4138"
     inkscape:connector-curvature="0" />
</svg>
