<?xml version="1.0" encoding="UTF-8" standalone="no"?>
<!-- Created with Inkscape (http://www.inkscape.org/) -->

<svg
   xmlns:dc="http://purl.org/dc/elements/1.1/"
   xmlns:cc="http://creativecommons.org/ns#"
   xmlns:rdf="http://www.w3.org/1999/02/22-rdf-syntax-ns#"
   xmlns:svg="http://www.w3.org/2000/svg"
   xmlns="http://www.w3.org/2000/svg"
   xmlns:sodipodi="http://sodipodi.sourceforge.net/DTD/sodipodi-0.dtd"
   xmlns:inkscape="http://www.inkscape.org/namespaces/inkscape"
   id="svg2"
   version="1.1"
   inkscape:version="0.91 r"
   width="250"
   height="250"
   viewBox="0 0 250 250"
   sodipodi:docname="lkd.svg">
  <metadata
     id="metadata8">
    <rdf:RDF>
      <cc:Work
         rdf:about="">
        <dc:format>image/svg+xml</dc:format>
        <dc:type
           rdf:resource="http://purl.org/dc/dcmitype/StillImage" />
        <dc:title></dc:title>
      </cc:Work>
    </rdf:RDF>
  </metadata>
  <defs
     id="defs6" />
  <sodipodi:namedview
     pagecolor="#ffffff"
     bordercolor="#666666"
     borderopacity="1"
     objecttolerance="10"
     gridtolerance="10"
     guidetolerance="10"
     inkscape:pageopacity="0"
     inkscape:pageshadow="2"
     inkscape:window-width="1600"
     inkscape:window-height="851"
     id="namedview4"
     showgrid="false"
     inkscape:zoom="0.944"
     inkscape:cx="127.11864"
     inkscape:cy="125"
     inkscape:window-x="0"
     inkscape:window-y="0"
     inkscape:window-maximized="1"
     inkscape:current-layer="svg2" />
  <path
     style="fill:#1686b0;fill-opacity:1"
     d="M 115.625,248.63461 C 104.74555,247.687 89.095062,244.39181 82.847046,241.73325 61.304556,232.56684 50.147115,225.43147 37.35782,212.64217 24.57634,199.8607 17.409292,188.65614 8.2852779,167.19181 4.4603474,158.19362 1.1502281,138.61984 1.1502281,125 c 0,-13.52198 3.2779003,-33.021745 7.0924199,-42.19181 C 23.804171,45.398452 45.398452,23.804171 82.80819,8.242648 91.924955,4.4502999 111.23473,1.25 125,1.25 c 13.76527,0 33.07505,3.2002999 42.19181,6.992648 37.40974,15.561523 59.00402,37.155804 74.56554,74.565542 6.91145,16.615049 8.88566,46.47848 4.47037,67.622 -2.48457,11.89787 -3.43907,14.70527 -9.62441,28.3076 -10.97709,24.13996 -33.72556,46.88844 -57.86552,57.86552 -13.71625,6.23714 -16.48308,7.16598 -28.44487,9.54904 -14.56023,2.90074 -22.95912,3.50211 -34.66792,2.48226 z M 91.25,143.125 l 0,-39.375 -13.125,0 -13.125,0 0,39.375 0,39.375 13.125,0 13.125,0 0,-39.375 z m 42.5,14.47091 0,-24.9041 3.23611,-3.8459 c 2.6748,-3.17881 4.13834,-3.83901 8.4375,-3.80616 11.36505,0.0869 13.32639,5.2263 13.32639,34.9201 l 0,22.54015 14.375,0 14.375,0 -0.0149,-25.9375 c -0.0146,-25.52861 -1.33052,-36.53393 -4.87977,-40.81052 -0.73354,-0.88385 -1.05732,-1.97712 -0.71954,-2.42949 0.33778,-0.45237 0.30864,-0.61072 -0.0648,-0.3519 -0.37341,0.25883 -2.65147,-1.27577 -5.06236,-3.41021 -10.19894,-9.02945 -30.83397,-9.31217 -40.16062,-0.55024 l -2.84808,2.67565 0,-3.8944 0,-3.89439 -14.6875,-0.386 -14.6875,-0.386 0.34642,39.6875 0.34643,39.6875 14.34107,0 14.34108,0 0,-24.90409 z M 88.722046,91.279925 C 93.335307,86.341412 94.072455,81.805892 91.291726,75.4692 89.447474,71.266539 87.96352,69.90641 83.264604,68.111877 77.790659,66.021359 77.215039,66.019184 71.848381,68.068727 65.600163,70.454945 62.5,74.832859 62.5,81.270102 c 0,9.006432 5.246228,13.663364 15.435987,13.702103 6.516172,0.02477 7.688782,-0.376634 10.786059,-3.69228 z"
     id="path4138"
     inkscape:connector-curvature="0" />
</svg>
