<?xml version="1.0" encoding="UTF-8" standalone="no"?>
<!-- Created with Inkscape (http://www.inkscape.org/) -->

<svg
   xmlns:dc="http://purl.org/dc/elements/1.1/"
   xmlns:cc="http://creativecommons.org/ns#"
   xmlns:rdf="http://www.w3.org/1999/02/22-rdf-syntax-ns#"
   xmlns:svg="http://www.w3.org/2000/svg"
   xmlns="http://www.w3.org/2000/svg"
   xmlns:sodipodi="http://sodipodi.sourceforge.net/DTD/sodipodi-0.dtd"
   xmlns:inkscape="http://www.inkscape.org/namespaces/inkscape"
   id="svg2"
   version="1.1"
   inkscape:version="0.91 r"
   width="320"
   height="320"
   viewBox="0 0 320 320"
   sodipodi:docname="lnx.svg">
  <metadata
     id="metadata8">
    <rdf:RDF>
      <cc:Work
         rdf:about="">
        <dc:format>image/svg+xml</dc:format>
        <dc:type
           rdf:resource="http://purl.org/dc/dcmitype/StillImage" />
        <dc:title></dc:title>
      </cc:Work>
    </rdf:RDF>
  </metadata>
  <defs
     id="defs6" />
  <sodipodi:namedview
     pagecolor="#ffffff"
     bordercolor="#666666"
     borderopacity="1"
     objecttolerance="10"
     gridtolerance="10"
     guidetolerance="10"
     inkscape:pageopacity="0"
     inkscape:pageshadow="2"
     inkscape:window-width="1600"
     inkscape:window-height="851"
     id="namedview4"
     showgrid="false"
     inkscape:zoom="0.7375"
     inkscape:cx="162.71186"
     inkscape:cy="160"
     inkscape:window-x="0"
     inkscape:window-y="0"
     inkscape:window-maximized="1"
     inkscape:current-layer="svg2" />
  <path
     style="fill:#000000;fill-opacity:0.60784316"
     d="m 94.819749,315.89136 c -5.204629,-2.21951 -20.625085,-6.86874 -34.267678,-10.33162 -13.642594,-3.46287 -25.996859,-7.26147 -27.453925,-8.44133 -2.485433,-2.01259 -2.55775,-2.88119 -1.169793,-14.05054 0.813676,-6.54795 1.080035,-16.31263 0.591906,-21.69931 -1.071665,-11.82623 0.05949,-13.46388 10.846652,-15.70327 9.20099,-1.91013 14.819617,-5.6548 21.371237,-14.24342 4.109426,-5.38711 4.932036,-7.40074 4.128925,-10.10704 -2.305756,-7.76986 -1.094414,-14.01632 4.587746,-23.65741 3.067451,-5.20462 7.77057,-15.54629 10.451376,-22.98147 6.501055,-18.03061 10.224802,-25.72046 16.322705,-33.70783 9.08626,-11.90167 17.96062,-24.67576 20.34239,-29.2816 2.15391,-4.16521 2.19784,-6.62837 0.58743,-32.941379 -2.0314,-33.19195 -1.48392,-46.309762 2.28779,-54.815829 9.70994,-21.89818 40.50579,-29.3274993 65.76378,-15.865131 17.78556,9.479602 23.89312,23.321035 26.48159,60.014653 0.85594,12.133602 2.28362,21.783875 3.90541,26.398145 3.11352,8.858531 14.36612,27.540261 25.91417,43.023051 9.27075,12.42956 16.64302,26.86328 22.44067,43.93517 4.32302,12.72973 6.13348,35.70469 3.34421,42.43859 -1.44612,3.49122 -1.30473,4.30737 1.17592,6.78802 1.92997,1.92998 2.81968,4.54709 2.81968,8.29423 0,8.87036 3.524,13.57141 21.39236,28.53773 2.36105,1.97758 4.29282,4.51621 4.29282,5.64138 0,3.73343 -7.77655,9.89955 -20.5257,16.2751 -7.96561,3.98342 -17.0664,10.08678 -24.76133,16.606 C 241.50574,318.03339 237.50992,320 227.27749,320 c -9.48005,0 -14.06205,-2.34272 -17.88469,-9.1442 -3.74309,-6.65993 -6.0756,-7.07802 -39.48861,-7.07802 -27.30968,0 -34.30205,1.39966 -42.69905,8.5471 -2.9416,2.50385 -6.67711,5.25506 -8.30115,6.11379 -5.05193,2.67128 -14.08811,1.71555 -24.084241,-2.54731 z m 81.104781,-29.78558 c 9.95498,-3.07671 18.96003,-8.67231 28.54527,-17.73765 l 7.28511,-6.88994 0,-13.91035 c 0,-17.77697 1.08259,-20.8456 7.35417,-20.8456 7.10793,0 8.23073,-3.10591 7.98466,-22.08727 -0.2795,-21.55908 -2.31121,-31.16944 -9.56461,-45.24244 -3.3319,-6.46448 -7.43317,-15.70778 -9.11395,-20.54065 -1.68079,-4.83287 -6.31334,-16.18318 -10.29454,-25.2229 l -7.23855,-16.435882 -5.44785,2.769673 c -2.99632,1.523319 -9.09784,5.247469 -13.55895,8.275889 -6.81765,4.62814 -9.41883,5.59049 -16.31158,6.0347 l -8.20045,0.52849 -8.68775,-7.57683 c -4.77824,-4.16727 -9.14844,-7.576841 -9.71156,-7.576841 -0.56311,0 -1.02383,4.063841 -1.02383,9.030751 0,8.28806 -0.45582,9.73037 -5.54252,17.53773 -3.04838,4.67884 -7.29527,13.75709 -9.43754,20.1739 -2.14226,6.41681 -6.73222,17.83941 -10.19991,25.38357 -3.467684,7.54414 -7.121902,16.7583 -8.120484,20.47589 -2.103327,7.83041 -2.45332,28.11093 -0.546611,31.67366 0.715597,1.3371 7.466525,7.15702 15.002085,12.93316 19.07742,14.62317 24.25238,19.77449 24.25238,24.14153 0,4.09447 -3.54217,7.64979 -9.69474,9.73069 l -4.20884,1.42349 4.40609,5.01826 c 6.17827,7.03666 11.196,10.31958 17.90673,11.71574 7.8054,1.62389 24.24519,0.28593 34.16777,-2.78077 z M 136.94108,79.097335 c 1.12634,-0.86606 0.6675,-2.102227 -1.63483,-4.404575 -4.44854,-4.448528 -5.46161,-9.447579 -2.75251,-13.582201 3.80602,-5.808723 7.27398,-3.624107 9.42777,5.938942 1.55962,6.924866 1.56101,6.926255 4.73965,4.699856 2.83799,-1.987807 3.09385,-2.950876 2.38158,-8.964732 -1.38145,-11.664189 -8.44833,-18.885278 -15.58784,-15.927993 -8.71702,3.610709 -10.50491,21.029014 -3.28894,32.041991 1.95564,2.984674 3.04977,3.01705 6.71512,0.198712 z m 56.52491,-8.959545 c 2.00387,-11.860787 -6.36932,-25.915529 -15.43932,-25.915529 -10.03559,0 -16.30588,7.137926 -16.26957,18.520828 0.0232,7.261225 0.70626,8.778605 4.95987,11.017531 4.35236,2.290902 4.48239,2.142704 4.48239,-5.108468 0,-10.011027 5.12326,-13.899219 10.81482,-8.207671 3.59839,3.598385 3.47741,9.988667 -0.25491,13.465855 -1.62724,1.516 -3.45224,2.756365 -4.05555,2.756365 -3.10075,0 -0.44995,2.402087 3.97249,3.599783 4.50388,1.219749 5.39407,1.028832 7.97909,-1.711259 1.60031,-1.6963 3.31513,-5.484145 3.81069,-8.417435 z"
     id="path4138"
     inkscape:connector-curvature="0" />
</svg>
