<?xml version="1.0" encoding="UTF-8" standalone="no"?>
<!-- Created with Inkscape (http://www.inkscape.org/) -->

<svg
   xmlns:dc="http://purl.org/dc/elements/1.1/"
   xmlns:cc="http://creativecommons.org/ns#"
   xmlns:rdf="http://www.w3.org/1999/02/22-rdf-syntax-ns#"
   xmlns:svg="http://www.w3.org/2000/svg"
   xmlns="http://www.w3.org/2000/svg"
   xmlns:sodipodi="http://sodipodi.sourceforge.net/DTD/sodipodi-0.dtd"
   xmlns:inkscape="http://www.inkscape.org/namespaces/inkscape"
   id="svg2"
   version="1.1"
   inkscape:version="0.91 r13725"
   width="234"
   height="216"
   viewBox="0 0 234 216"
   sodipodi:docname="php.svg">
  <metadata
     id="metadata8">
    <rdf:RDF>
      <cc:Work
         rdf:about="">
        <dc:format>image/svg+xml</dc:format>
        <dc:type
           rdf:resource="http://purl.org/dc/dcmitype/StillImage" />
        <dc:title></dc:title>
      </cc:Work>
    </rdf:RDF>
  </metadata>
  <defs
     id="defs6" />
  <sodipodi:namedview
     pagecolor="#ffffff"
     bordercolor="#666666"
     borderopacity="1"
     objecttolerance="10"
     gridtolerance="10"
     guidetolerance="10"
     inkscape:pageopacity="0"
     inkscape:pageshadow="2"
     inkscape:window-width="1831"
     inkscape:window-height="1173"
     id="namedview4"
     showgrid="false"
     inkscape:zoom="3.0903185"
     inkscape:cx="148.46041"
     inkscape:cy="123.16251"
     inkscape:window-x="1680"
     inkscape:window-y="-9"
     inkscape:window-maximized="1"
     inkscape:current-layer="svg2" />
  <path
     style="fill:#00579f;fill-opacity:1"
     d="M 77.638285,214.09138 C 69.309161,212.14563 64.410121,209.98296 55.968624,204.52534 37.728743,192.73288 28.515096,165.1224 32.573128,134.41622 c 0.906779,-6.86143 1.915833,-13.45038 2.242321,-14.64212 0.485862,-1.7734 -0.160523,-2.46302 -3.560379,-3.79852 C 24.653725,113.3825 15.342479,106.80736 9.1054586,100.33464 3.2388091,94.246276 -1.9400962,86.827896 0.84599863,88.503581 1.6481675,88.986042 5.5036453,91.420286 9.4137203,93.912997 19.4208,100.29261 37.890815,106.1073 41.147203,103.90326 c 0.646699,-0.43771 3.181146,-4.794198 5.63211,-9.681091 C 52.660497,82.495847 63.031742,67.201424 84.346664,38.8218 92.165423,28.411558 107.67233,12.849692 114.78202,8.2785631 c 12.37607,-7.95708995 10.31469,-7.6732992 58.2827,-8.02380221 30.13406,-0.22019021 44.45681,0.0472929 47.58119,0.88860391 5.441,1.4651094 10.4428,6.4909845 12.15831,12.2168312 0.93514,3.121227 1.25631,27.107479 1.25631,93.825874 0,96.40644 0.15375,93.58382 -5.37442,98.67245 -2.88258,2.65341 -15.55238,5.22346 -30.77034,6.24174 -8.12623,0.54376 -10.14338,0.33276 -14.26973,-1.4925 l -4.80566,-2.12578 -5.20026,-13.45092 c -2.86013,-7.39801 -7.43512,-19.24395 -10.16664,-26.32433 -4.47635,-11.60321 -5.36644,-13.12596 -9.02098,-15.43296 -2.23003,-1.40776 -5.36754,-2.55956 -6.97226,-2.55956 -4.09303,0 -25.93361,-5.63543 -31.93258,-8.23943 l -4.98903,-2.1656 3.58062,-4.99894 c 1.96933,-2.74941 4.80273,-7.30513 6.29643,-10.12381 3.92731,-7.41102 2.76151,-8.42021 -8.77476,-7.59594 -15.650722,1.11826 -26.597518,5.51677 -34.699196,13.94244 -8.271859,8.60265 -12.008195,19.24597 -11.178583,31.84331 0.497989,7.56178 4.522581,17.45966 9.036969,22.2251 6.470419,6.83024 17.353526,10.11119 33.47403,10.09146 10.80869,-0.0131 19.01611,-1.67211 24.54164,-4.96039 l 3.39545,-2.02064 4.44679,3.15094 c 2.44573,1.73302 4.44267,3.42426 4.43763,3.75831 -0.0169,1.12488 -11.97481,8.32672 -19.87819,11.97199 -4.31182,1.98875 -10.66469,4.38759 -14.11749,5.33079 -8.79992,2.40384 -25.67114,2.99217 -33.481685,1.16758 z m 93.644095,-86.91898 0,-6.80096 3.53394,0 c 4.86368,0 6.40593,-2.27938 6.40593,-9.4677 0,-8.80427 -1.80227,-10.41206 -11.67149,-10.41206 l -7.68511,0 0,16.74084 0,16.74085 4.70836,0 4.70837,0 0,-6.80097 z m 0,-16.15594 c 0,-2.33583 0.47083,-4.24696 1.0463,-4.24696 0.57546,0 1.04629,1.62014 1.04629,3.6003 0,1.98017 -0.47083,3.89131 -1.04629,4.24697 -0.6319,0.39053 -1.0463,-1.03544 -1.0463,-3.60031 z m 20.92604,16.15594 c 0,-5.34777 0.33536,-6.80096 1.56947,-6.80096 1.2341,0 1.56945,1.45319 1.56945,6.80096 l 0,6.80097 4.1852,0 4.18522,0 0,-16.74085 0,-16.74084 -4.44679,-0.001 -4.44679,-10e-4 0.35841,5.7561 c 0.29375,4.71777 0.0579,5.75616 -1.30788,5.75616 -1.3222,0 -1.66629,-1.18831 -1.66629,-5.75467 l 0,-5.75467 -4.1852,0 -4.18522,0 0,16.74085 0,16.74084 4.18522,0 4.1852,0 0,-6.80096 z m 24.06496,0 0,-6.80096 3.63795,0 c 5.21799,0 7.23503,-3.41291 6.59295,-11.15549 -0.63469,-7.65357 -2.10746,-8.72427 -12.00033,-8.72427 l -7.64729,0 0,16.74084 0,16.74085 4.70836,0 4.70836,0 0,-6.80097 z m 0,-16.15594 c 0,-2.33583 0.47085,-4.24696 1.04631,-4.24696 0.57547,0 1.0463,1.62014 1.0463,3.6003 0,1.98017 -0.47083,3.89131 -1.0463,4.24697 -0.63189,0.39053 -1.04631,-1.03544 -1.04631,-3.60031 z M 140.56736,69.761339 c 6.19708,-5.330514 2.19664,-15.306979 -6.13792,-15.306979 -8.99213,0 -12.35552,10.86758 -5.08984,16.445995 2.75184,2.112798 8.07511,1.572771 11.22776,-1.139016 z"
     id="path4140"
     inkscape:connector-curvature="0" />
</svg>
